<?xml version="1.0" encoding="UTF-8" standalone="no"?>
<!-- Created with Inkscape (http://www.inkscape.org/) -->

<svg
   inkscape:version="1.1 (c68e22c387, 2021-05-23)"
   sodipodi:docname="TetragonalDeltohedron.svg"
   id="svg64"
   version="1.1"
   viewBox="0 0 100.0 100.0"
   height="100.0mm"
   width="100.0mm"
   xmlns:inkscape="http://www.inkscape.org/namespaces/inkscape"
   xmlns:sodipodi="http://sodipodi.sourceforge.net/DTD/sodipodi-0.dtd"
   xmlns="http://www.w3.org/2000/svg"
   xmlns:svg="http://www.w3.org/2000/svg">
  <sodipodi:namedview
     id="namedview66"
     pagecolor="#ffffff"
     bordercolor="#666666"
     borderopacity="1.0"
     inkscape:pageshadow="2"
     inkscape:pageopacity="0.0"
     inkscape:pagecheckerboard="0"
     inkscape:document-units="mm"
     showgrid="false"
     inkscape:zoom="2"
     inkscape:cx="131.75"
     inkscape:cy="212.25"
     inkscape:window-width="2194"
     inkscape:window-height="1163"
     inkscape:window-x="2552"
     inkscape:window-y="-8"
     inkscape:window-maximized="1"
     inkscape:current-layer="g865" />
  <defs
     id="defs61" />
  <g
     inkscape:label="[fixed] BG"
     inkscape:groupmode="layer"
     sodipodi:insensitive="true"
     id="g76">
    <rect
       x="0"
       y="0"
       width="100.0"
       height="100.0"
       style="fill:#FFFFFF;fill-opacity:1;stroke:none"
       id="rect74" />
  </g>
  <g
     inkscape:label="Edge.Cuts"
     inkscape:groupmode="layer"
     id="g78"
     style="display:inline">
    <path
       style="fill:#ff0000;stroke:none;stroke-width:0.0529103"
       d="m 53.6941,97.7553 13.4767,-28.738 0.0143,-0.0011 5.4889,-11.7044 0.004,-0.0393 0.006,-0.0133 0.0148,-0.0021 1.2536,-2.6727 -0.0148,0.0031 5.9557,-12.7001 0.008,0.0128 1.182,-2.5198 -0.008,-0.0114 3.9935,-8.5156 0.008,0.0128 1.2259,-2.6132 -0.008,-0.0114 2.705,-5.7685 -0.009,-0.0041 0.006,-0.0081 -6.9971,-4.9251 -0.005,-0.0104 L 68.5922,8.09246 68.5809,8.0915 53.8992,-2.24241 l -0.006,0.008 -0.005,-0.008 -35.1995,24.51841 0.006,0.0079 -0.009,0.0039 34.993,75.4692 0.009,-0.004 0.0064,0.0023"
       id="path40-8-8" />
  </g>
  <g
     inkscape:label="Dwgs.User"
     inkscape:groupmode="layer"
     id="g80" />
  <g
     inkscape:label="B.SilkS"
     inkscape:groupmode="layer"
     id="g865">
    <g
       id="g1164"
       transform="matrix(1.0451357,0,0,1.0451357,-2.1537025,-0.49640636)">
      <path
         style="fill:none;stroke:#0000ff;stroke-width:0.47840678"
         d="m 53.630159,11.737856 a 18.963636,18.95273 44.987028 0 0 -7.57183,-3.5368951 l 3.56306,-2.481824 a 16.563233,16.553707 44.987029 0 1 8.38589,0.09411 l 3.27231,2.30323 a 18.963679,18.952773 44.987027 0 0 -7.64943,3.6214221 z"
         id="path353" />
      <path
         style="fill:none;stroke:#0000ff;stroke-width:0.47840678"
         d="m 60.353289,22.159937 a 18.963636,18.95273 44.987028 0 0 -4.92377,-8.811944 16.563233,16.553707 44.987029 0 1 8.66274,-3.251894 l 3.11596,2.193262 a 16.563233,16.553707 44.987029 0 1 2.83169,7.072356 18.963636,18.95273 44.987028 0 0 -9.68662,2.79822 z"
         id="path351" />
      <path
         style="fill:none;stroke:#0000ff;stroke-width:0.47840678"
         d="m 46.948899,22.184657 a 18.963636,18.95273 44.987028 0 0 -9.67004,-2.734911 16.563233,16.553707 44.987029 0 1 2.74798,-7.047507 l 3.20572,-2.232883 a 16.563268,16.553742 44.987028 0 1 8.59344,3.189148 18.963679,18.952773 44.987027 0 0 -4.8771,8.826153 z"
         id="path349" />
      <path
         style="fill:none;stroke:#0000ff;stroke-width:0.47840678"
         d="m 81.555139,23.10752 a 18.963636,18.95273 44.987028 0 0 -9.09038,-3.607137 18.963636,18.95273 44.987028 0 0 -1.04315,-4.245305 l 9.91829,6.981011 a 16.563233,16.553707 44.987029 0 1 0.21524,0.871431 z"
         id="path347" />
      <path
         style="fill:none;stroke:#0000ff;stroke-width:0.47840678"
         d="m 25.763099,23.238299 a 16.563268,16.553742 44.987028 0 1 0.29135,-1.103554 l 9.79634,-6.82365 a 18.963636,18.95273 44.987028 0 0 -1.00563,4.261384 18.963636,18.95273 44.987028 0 0 -9.08212,3.665799 z"
         id="path345" />
      <path
         style="fill:none;stroke:#0000ff;stroke-width:0.47840678"
         d="m 53.688159,29.146621 a 18.963636,18.95273 44.987028 0 0 -4.59636,-5.46729 16.563233,16.553707 44.987029 0 1 4.52993,-8.755554 16.563268,16.553742 44.987028 0 1 4.61095,8.755198 18.963636,18.95273 44.987028 0 0 -4.54452,5.467646 z"
         id="path343" />
      <path
         style="fill:none;stroke:#0000ff;stroke-width:0.47840678"
         d="m 60.180559,31.837495 -2e-4,5.59e-4 a 18.963636,18.95273 44.987028 0 0 0.74299,-5.139442 18.963636,18.95273 44.987028 0 0 -0.10679,-1.98752 16.563268,16.553742 44.987028 0 1 9.39988,-2.961847 16.563233,16.553707 44.987029 0 1 0.002,0.065 16.563233,16.553707 44.987029 0 1 -2.92558,9.363112 18.963636,18.95273 44.987028 0 0 -7.11174,0.660678 z"
         id="path341" />
      <path
         style="fill:none;stroke:#0000ff;stroke-width:0.47840678"
         d="m 47.181929,31.842595 a 18.963636,18.95273 44.987028 0 0 -7.09135,-0.601255 16.563233,16.553707 44.987029 0 1 -2.98412,-9.388832 16.563233,16.553707 44.987029 0 1 9.42713,2.92298 18.963679,18.952773 44.987027 0 0 -0.10988,1.76632 18.963636,18.95273 44.987028 0 0 0.75821,5.300787 z"
         id="path339" />
      <path
         style="fill:none;stroke:#0000ff;stroke-width:0.47840678"
         d="m 55.539129,33.880634 v 0 a 18.963636,18.95273 44.987028 0 0 -0.57519,-1.902681 16.563268,16.553742 44.987028 0 1 3.55863,-5.349336 16.563268,16.553742 44.987028 0 1 0.002,0.0634 16.563233,16.553707 44.987029 0 1 -1.24418,6.239424 18.963636,18.95273 44.987028 0 0 -1.74057,0.949233 z"
         id="path337" />
      <path
         style="fill:none;stroke:#0000ff;stroke-width:0.47840678"
         d="m 51.835999,33.882934 a 18.963636,18.95273 44.987028 0 0 -1.73668,-0.929896 16.563233,16.553707 44.987029 0 1 -1.26902,-6.261665 16.563233,16.553707 44.987029 0 1 3.5627,5.293115 18.963636,18.95273 44.987028 0 0 -0.557,1.898446 z"
         id="path335" />
      <path
         style="fill:none;stroke:#0000ff;stroke-width:0.47840678"
         d="m 78.346909,36.161632 a 18.963636,18.95273 44.987028 0 0 -8.48028,-4.54665 18.963636,18.95273 44.987028 0 0 2.74837,-9.707697 16.563268,16.553742 44.987028 0 1 9.32419,4.67289 16.563233,16.553707 44.987029 0 1 0.002,0.0555 16.563233,16.553707 44.987029 0 1 -0.18168,2.249036 z"
         id="path333" />
      <path
         style="fill:none;stroke:#0000ff;stroke-width:0.47840678"
         d="m 29.138489,36.214102 -3.60727,-7.779811 a 16.563233,16.553707 44.987029 0 1 -0.11917,-1.708652 16.563233,16.553707 44.987029 0 1 9.30326,-4.700278 18.963636,18.95273 44.987028 0 0 2.8108,9.651077 18.963636,18.95273 44.987028 0 0 -8.38762,4.537664 z"
         id="path331" />
      <path
         style="fill:none;stroke:#0000ff;stroke-width:0.47840678"
         d="m 60.077659,37.022075 a 18.963636,18.95273 44.987028 0 0 -1.88707,-0.559614 18.963636,18.95273 44.987028 0 0 0.93972,-1.769397 16.563233,16.553707 44.987029 0 1 6.26171,-1.247428 16.563233,16.553707 44.987029 0 1 -5.31436,3.576439 z"
         id="path329" />
      <path
         style="fill:none;stroke:#0000ff;stroke-width:0.47840678"
         d="m 47.318329,37.051565 a 16.563233,16.553707 44.987029 0 1 -5.3094,-3.526261 16.563268,16.553742 44.987028 0 1 6.29864,1.241421 18.963636,18.95273 44.987028 0 0 0.92582,1.702501 18.963636,18.95273 44.987028 0 0 -1.91506,0.582339 z"
         id="path327" />
      <path
         style="fill:none;stroke:#0000ff;stroke-width:0.47840678"
         d="m 68.411719,42.863853 a 18.963636,18.95273 44.987028 0 0 -5.48718,-4.560036 18.963636,18.95273 44.987028 0 0 5.44254,-4.59535 16.563233,16.553707 44.987029 0 1 8.74738,4.558619 16.563233,16.553707 44.987029 0 1 -8.70274,4.596767 z"
         id="path325" />
      <path
         style="fill:none;stroke:#0000ff;stroke-width:0.47840678"
         d="m 39.042199,42.943433 a 16.563233,16.553707 44.987029 0 1 -8.7382,-4.553016 16.563268,16.553742 44.987028 0 1 8.71225,-4.597151 18.963636,18.95273 44.987028 0 0 5.4754,4.545728 18.963636,18.95273 44.987028 0 0 -5.44945,4.604439 z"
         id="path323" />
      <path
         style="fill:none;stroke:#0000ff;stroke-width:0.47840678"
         d="m 65.387939,43.136342 a 16.563233,16.553707 44.987029 0 1 -6.28245,-1.23508 18.963636,18.95273 44.987028 0 0 -0.93861,-1.722072 18.963636,18.95273 44.987028 0 0 1.90225,-0.575547 16.563268,16.553742 44.987028 0 1 5.31881,3.532699 z"
         id="path321" />
      <path
         style="fill:none;stroke:#0000ff;stroke-width:0.47840678"
         d="m 42.412239,43.202982 a 16.563233,16.553707 44.987029 0 1 -0.36849,-0.0091 16.563268,16.553742 44.987028 0 1 5.317,-3.56548 18.963636,18.95273 44.987028 0 0 1.88441,0.556616 18.963636,18.95273 44.987028 0 0 -0.9398,1.748306 16.563233,16.553707 44.987029 0 1 -5.89311,1.269287 z"
         id="path319" />
      <path
         style="fill:none;stroke:#0000ff;stroke-width:0.47840678"
         d="m 71.969349,49.761303 a 18.963636,18.95273 44.987028 0 0 -2.06283,-4.768102 18.963636,18.95273 44.987028 0 0 5.35022,-2.242013 z"
         id="path317" />
      <path
         style="fill:none;stroke:#0000ff;stroke-width:0.47840678"
         d="m 35.480149,49.891386 -3.25437,-7.018921 a 18.963636,18.95273 44.987028 0 0 5.3068,2.183662 18.963636,18.95273 44.987028 0 0 -2.05243,4.835259 z"
         id="path315" />
      <path
         style="fill:none;stroke:#0000ff;stroke-width:0.47840678"
         d="m 58.591259,50.013374 a 16.563233,16.553707 44.987029 0 1 -3.57791,-5.292754 18.963636,18.95273 44.987028 0 0 0.56637,-1.929417 18.963636,18.95273 44.987028 0 0 1.72101,0.923037 16.563268,16.553742 44.987028 0 1 1.29053,6.299134 z"
         id="path313" />
      <path
         style="fill:none;stroke:#0000ff;stroke-width:0.47840678"
         d="m 48.896409,50.026874 h -10e-5 a 16.563233,16.553707 44.987029 0 1 -0.003,-0.0614 16.563233,16.553707 44.987029 0 1 1.22565,-6.212703 18.963636,18.95273 44.987028 0 0 1.75898,-0.958904 18.963636,18.95273 44.987028 0 0 0.57189,1.894302 16.563233,16.553707 44.987029 0 1 -3.55355,5.338693 z"
         id="path311" />
      <path
         style="fill:none;stroke:#0000ff;stroke-width:0.47840678"
         d="m 69.607629,54.798023 a 16.563233,16.553707 44.987029 0 1 -8.72671,-2.89435 18.963636,18.95273 44.987028 0 0 0.11195,-1.788028 18.963636,18.95273 44.987028 0 0 -0.75845,-5.282607 18.963636,18.95273 44.987028 0 0 5.66215,0.710541 18.963636,18.95273 44.987028 0 0 1.4293,-0.109698 16.563268,16.553742 44.987028 0 1 2.90973,8.024959 z"
         id="path309" />
      <path
         style="fill:none;stroke:#0000ff;stroke-width:0.47840678"
         d="m 37.806009,54.907004 -0.54826,-1.182325 a 16.563268,16.553742 44.987028 0 1 2.85649,-8.227475 18.963636,18.95273 44.987028 0 0 2.36517,0.102771 18.963636,18.95273 44.987028 0 0 4.75762,-0.762493 18.963636,18.95273 44.987028 0 0 -0.74316,5.121661 18.963636,18.95273 44.987028 0 0 0.10512,1.988761 16.563233,16.553707 44.987029 0 1 -8.79298,2.959098 z"
         id="path307" />
      <path
         style="fill:none;stroke:#0000ff;stroke-width:0.47840678"
         d="m 53.774519,61.733173 a 16.563233,16.553707 44.987029 0 1 -4.59613,-8.73285 18.963636,18.95273 44.987028 0 0 4.55033,-5.473005 18.963636,18.95273 44.987028 0 0 4.59037,5.463951 16.563233,16.553707 44.987029 0 1 -4.54457,8.741904 z"
         id="path305" />
      <path
         style="fill:none;stroke:#0000ff;stroke-width:0.47840678"
         d="m 64.125739,66.487727 a 16.563233,16.553707 44.987029 0 1 -8.52657,-3.197556 18.963636,18.95273 44.987028 0 0 4.8656,-8.802112 18.963636,18.95273 44.987028 0 0 8.05401,2.631854 z"
         id="path303" />
      <path
         style="fill:none;stroke:#0000ff;stroke-width:0.47840678"
         d="m 43.212399,66.567047 -4.33178,-9.342291 a 18.963636,18.95273 44.987028 0 0 8.18276,-2.710618 18.963636,18.95273 44.987028 0 0 4.90211,8.789975 16.563233,16.553707 44.987029 0 1 -8.75309,3.262934 z"
         id="path301" />
      <path
         style="fill:none;stroke:#0000ff;stroke-width:0.47840678"
         d="m 54.204219,71.442948 a 16.563233,16.553707 44.987029 0 1 -9.40726,-2.634812 18.963636,18.95273 44.987028 0 0 8.9784,-3.879991 18.963636,18.95273 44.987028 0 0 9.02523,3.830384 16.563233,16.553707 44.987029 0 1 -8.59637,2.684419 z"
         id="path299" />
      <path
         style="fill:none;stroke:#0000ff;stroke-width:0.47840678"
         d="m 53.591429,88.951376 -7.83698,-16.901908 a 18.963636,18.95273 44.987028 0 0 8.51458,1.792505 h 1.1e-4 a 18.963636,18.95273 44.987028 0 0 7.17253,-1.630593 z"
         id="path297" />
    </g>
  </g>
</svg>
