<?xml version="1.0" standalone="no"?>
 <!DOCTYPE svg PUBLIC "-//W3C//DTD SVG 1.1//EN" 
 "http://www.w3.org/Graphics/SVG/1.1/DTD/svg11.dtd"> 
<svg
  xmlns:svg="http://www.w3.org/2000/svg"
  xmlns="http://www.w3.org/2000/svg"
  xmlns:xlink="http://www.w3.org/1999/xlink"
  version="1.1"
  width="157.8864mm" height="145.4404mm" viewBox="0.0000 0.0000 157.8864 145.4404">
<title>SVG Image created as RhombicDodecahedron-B_Cu.svg date 2024/11/29 14:01:46 </title>
  <desc>Image generated by PCBNEW </desc>
<g style="fill:#000000; fill-opacity:1.0000;stroke:#000000; stroke-opacity:1.0000;
stroke-linecap:round; stroke-linejoin:round;"
 transform="translate(0 0) scale(1 1)">
</g>
<g style="fill:none; 
stroke:#D0D2CD; stroke-width:0.0500; stroke-opacity:1; 
stroke-linecap:round; stroke-linejoin:round;">
<path d="M155.9500 122.2342
L95.3300 143.6692
" />
<path d="M155.9500 57.9372
L155.9500 122.2342
" />
<path d="M95.3300 143.6692
L95.3300 79.3692
" />
<path d="M95.3300 79.3692
L155.9500 57.9372
" />
</g>
<g style="fill:#D0D2CD; fill-opacity:1.0000; stroke:none;">
<circle cx="103.3086" cy="79.4906" r="0.5000" /> 
</g>
<g style="fill:#D0D2CD; fill-opacity:1.0000; stroke:none;">
<circle cx="97.7500" cy="140.2492" r="1.6000" /> 
</g>
<g style="fill:#D0D2CD; fill-opacity:1.0000; stroke:none;">
<circle cx="153.7500" cy="61.0492" r="1.6000" /> 
</g>
<g style="fill:#D0D2CD; fill-opacity:1.0000; stroke:none;">
<circle cx="97.5500" cy="94.7992" r="0.5000" /> 
</g>
<g style="fill:#D0D2CD; fill-opacity:1.0000; stroke:none;">
<circle cx="154.3500" cy="108.4492" r="0.5000" /> 
</g>
<g style="fill:#D0D2CD; fill-opacity:1.0000; stroke:none;">
<circle cx="154.3500" cy="112.7992" r="0.5000" /> 
</g>
<g style="fill:#D0D2CD; fill-opacity:1.0000; stroke:none;">
<circle cx="97.4500" cy="89.9992" r="0.5000" /> 
</g>
<g style="fill:#D0D2CD; fill-opacity:1.0000; stroke:none;">
<circle cx="153.4500" cy="120.4492" r="1.6000" /> 
</g>
<g style="fill:#D0D2CD; fill-opacity:1.0000; stroke:none;">
<circle cx="97.6500" cy="81.1492" r="1.6000" /> 
</g>
<g style="fill:#D0D2CD; fill-opacity:1.0000; stroke:none;">
<circle cx="147.5030" cy="123.4663" r="0.5000" /> 
<path style="fill:#4D7FC4; fill-opacity:1.0000; stroke:none;fill-rule:evenodd;"
d="M 104.9703,79.0310
102.8490,81.1523
101.6469,79.9502
103.7682,77.8289
Z" /> 
<path style="fill:#4D7FC4; fill-opacity:1.0000; stroke:none;fill-rule:evenodd;"
d="M 96.7000,96.2992
96.7000,93.2992
98.4000,93.2992
98.4000,96.2992
Z" /> 
<path style="fill:#4D7FC4; fill-opacity:1.0000; stroke:none;fill-rule:evenodd;"
d="M 153.5000,109.9492
153.5000,106.9492
155.2000,106.9492
155.2000,109.9492
Z" /> 
<path style="fill:#4D7FC4; fill-opacity:1.0000; stroke:none;fill-rule:evenodd;"
d="M 153.5000,114.2992
153.5000,111.2992
155.2000,111.2992
155.2000,114.2992
Z" /> 
<path style="fill:#4D7FC4; fill-opacity:1.0000; stroke:none;fill-rule:evenodd;"
d="M 96.6000,91.4992
96.6000,88.4992
98.3000,88.4992
98.3000,91.4992
Z" /> 
<path style="fill:#4D7FC4; fill-opacity:1.0000; stroke:none;fill-rule:evenodd;"
d="M 145.8028,123.1806
148.6218,122.1545
149.2033,123.7520
146.3842,124.7780
Z" /> 
<path style="fill:#4D7FC4; fill-opacity:1.0000; stroke:none;fill-rule:evenodd;"
d="M 129.3000,101.2992
129.2810,101.3948
129.2268,101.4760
129.1457,101.5301
129.0500,101.5492
126.5500,101.5492
126.4543,101.5301
126.3732,101.4760
126.3190,101.3948
126.3000,101.2992
126.3000,98.7992
126.3190,98.7035
126.3732,98.6224
126.4543,98.5682
126.5500,98.5492
129.0500,98.5492
129.1457,98.5682
129.2268,98.6224
129.2810,98.7035
129.3000,98.7992
Z" /> 
<path style="fill:#4D7FC4; fill-opacity:1.0000; stroke:none;fill-rule:evenodd;"
d="M 143.5500,95.2992
143.5310,95.3948
143.4768,95.4760
143.3957,95.5301
143.3000,95.5492
140.8000,95.5492
140.7043,95.5301
140.6232,95.4760
140.5690,95.3948
140.5500,95.2992
140.5500,92.7992
140.5690,92.7035
140.6232,92.6224
140.7043,92.5682
140.8000,92.5492
143.3000,92.5492
143.3957,92.5682
143.4768,92.6224
143.5310,92.7035
143.5500,92.7992
Z" /> 
<path style="fill:#4D7FC4; fill-opacity:1.0000; stroke:none;fill-rule:evenodd;"
d="M 114.8000,107.2992
114.7810,107.3948
114.7268,107.4760
114.6457,107.5301
114.5500,107.5492
112.0500,107.5492
111.9543,107.5301
111.8732,107.4760
111.8190,107.3948
111.8000,107.2992
111.8000,104.7992
111.8190,104.7035
111.8732,104.6224
111.9543,104.5682
112.0500,104.5492
114.5500,104.5492
114.6457,104.5682
114.7268,104.6224
114.7810,104.7035
114.8000,104.7992
Z" /> 
</g>
<g style="fill:#ECECEC; fill-opacity:1.0000; stroke:none;">
<circle cx="109.7500" cy="82.0492" r="0.3000" /> 
</g>
<g style="fill:#ECECEC; fill-opacity:1.0000; stroke:none;">
<circle cx="130.2500" cy="69.4492" r="0.3000" /> 
</g>
<g style="fill:#ECECEC; fill-opacity:1.0000; stroke:none;">
<circle cx="116.9500" cy="129.9492" r="0.3000" /> 
</g>
<g style="fill:#ECECEC; fill-opacity:1.0000; stroke:none;">
<circle cx="145.6500" cy="103.0492" r="0.3000" /> 
</g>
<g style="fill:#ECECEC; fill-opacity:1.0000; stroke:none;">
<circle cx="124.1500" cy="127.0492" r="0.3000" /> 
</g>
<g style="fill:#ECECEC; fill-opacity:1.0000; stroke:none;">
<circle cx="138.4500" cy="117.9492" r="0.3000" /> 
</g>
<g style="fill:#ECECEC; fill-opacity:1.0000; stroke:none;">
<circle cx="131.3500" cy="72.9492" r="0.3000" /> 
</g>
<g style="fill:#ECECEC; fill-opacity:1.0000; stroke:none;">
<circle cx="116.9500" cy="126.9492" r="0.3000" /> 
</g>
<g style="fill:#ECECEC; fill-opacity:1.0000; stroke:none;">
<circle cx="152.9500" cy="114.9492" r="0.3000" /> 
</g>
<g style="fill:#ECECEC; fill-opacity:1.0000; stroke:none;">
<circle cx="145.6500" cy="66.9492" r="0.3000" /> 
</g>
<g style="fill:#ECECEC; fill-opacity:1.0000; stroke:none;">
<circle cx="131.3500" cy="75.9492" r="0.3000" /> 
</g>
<g style="fill:#ECECEC; fill-opacity:1.0000; stroke:none;">
<circle cx="109.7500" cy="127.0492" r="0.3000" /> 
</g>
<g style="fill:#ECECEC; fill-opacity:1.0000; stroke:none;">
<circle cx="116.9500" cy="78.9492" r="0.3000" /> 
</g>
<g style="fill:#ECECEC; fill-opacity:1.0000; stroke:none;">
<circle cx="145.6500" cy="112.0492" r="0.3000" /> 
</g>
<g style="fill:#ECECEC; fill-opacity:1.0000; stroke:none;">
<circle cx="154.4500" cy="64.4492" r="0.3000" /> 
</g>
<g style="fill:#ECECEC; fill-opacity:1.0000; stroke:none;">
<circle cx="131.3500" cy="121.0492" r="0.3000" /> 
</g>
<g style="fill:#ECECEC; fill-opacity:1.0000; stroke:none;">
<circle cx="129.8500" cy="129.1492" r="0.3000" /> 
</g>
<g style="fill:#ECECEC; fill-opacity:1.0000; stroke:none;">
<circle cx="145.6500" cy="69.9492" r="0.3000" /> 
</g>
<g style="fill:#ECECEC; fill-opacity:1.0000; stroke:none;">
<circle cx="116.9500" cy="102.9492" r="0.3000" /> 
</g>
<g style="fill:#ECECEC; fill-opacity:1.0000; stroke:none;">
<circle cx="145.6500" cy="114.9492" r="0.3000" /> 
</g>
<g style="fill:#ECECEC; fill-opacity:1.0000; stroke:none;">
<circle cx="116.9500" cy="120.9492" r="0.3000" /> 
</g>
<g style="fill:#ECECEC; fill-opacity:1.0000; stroke:none;">
<circle cx="124.1500" cy="90.8492" r="0.3000" /> 
</g>
<g style="fill:#ECECEC; fill-opacity:1.0000; stroke:none;">
<circle cx="123.1500" cy="72.4492" r="0.3000" /> 
</g>
<g style="fill:#ECECEC; fill-opacity:1.0000; stroke:none;">
<circle cx="102.5500" cy="129.9492" r="0.3000" /> 
</g>
<g style="fill:#ECECEC; fill-opacity:1.0000; stroke:none;">
<circle cx="124.1500" cy="78.9492" r="0.3000" /> 
</g>
<g style="fill:#ECECEC; fill-opacity:1.0000; stroke:none;">
<circle cx="150.7500" cy="61.8492" r="0.3000" /> 
</g>
<g style="fill:#ECECEC; fill-opacity:1.0000; stroke:none;">
<circle cx="131.3500" cy="91.0492" r="0.3000" /> 
</g>
<g style="fill:#ECECEC; fill-opacity:1.0000; stroke:none;">
<circle cx="102.5500" cy="132.9492" r="0.3000" /> 
</g>
<g style="fill:#ECECEC; fill-opacity:1.0000; stroke:none;">
<circle cx="152.9500" cy="66.9492" r="0.3000" /> 
</g>
<g style="fill:#ECECEC; fill-opacity:1.0000; stroke:none;">
<circle cx="109.7500" cy="121.0492" r="0.3000" /> 
</g>
<g style="fill:#ECECEC; fill-opacity:1.0000; stroke:none;">
<circle cx="124.1500" cy="75.9492" r="0.3000" /> 
</g>
<g style="fill:#ECECEC; fill-opacity:1.0000; stroke:none;">
<circle cx="116.9500" cy="90.9492" r="0.3000" /> 
</g>
<g style="fill:#ECECEC; fill-opacity:1.0000; stroke:none;">
<circle cx="102.5500" cy="88.0492" r="0.3000" /> 
</g>
<g style="fill:#ECECEC; fill-opacity:1.0000; stroke:none;">
<circle cx="116.9500" cy="112.0492" r="0.3000" /> 
</g>
<g style="fill:#ECECEC; fill-opacity:1.0000; stroke:none;">
<circle cx="131.3500" cy="124.0492" r="0.3000" /> 
</g>
<g style="fill:#ECECEC; fill-opacity:1.0000; stroke:none;">
<circle cx="152.9500" cy="90.9492" r="0.3000" /> 
</g>
<g style="fill:#ECECEC; fill-opacity:1.0000; stroke:none;">
<circle cx="109.7500" cy="112.0492" r="0.3000" /> 
</g>
<g style="fill:#ECECEC; fill-opacity:1.0000; stroke:none;">
<circle cx="109.7500" cy="103.0492" r="0.3000" /> 
</g>
<g style="fill:#ECECEC; fill-opacity:1.0000; stroke:none;">
<circle cx="138.4500" cy="78.9492" r="0.3000" /> 
</g>
<g style="fill:#ECECEC; fill-opacity:1.0000; stroke:none;">
<circle cx="144.7500" cy="124.5492" r="0.3000" /> 
</g>
<g style="fill:#ECECEC; fill-opacity:1.0000; stroke:none;">
<circle cx="102.5500" cy="91.0492" r="0.3000" /> 
</g>
<g style="fill:#ECECEC; fill-opacity:1.0000; stroke:none;">
<circle cx="96.8500" cy="83.7492" r="0.3000" /> 
</g>
<g style="fill:#ECECEC; fill-opacity:1.0000; stroke:none;">
<circle cx="119.6500" cy="133.1492" r="0.3000" /> 
</g>
<g style="fill:#ECECEC; fill-opacity:1.0000; stroke:none;">
<circle cx="131.3500" cy="78.9492" r="0.3000" /> 
</g>
<g style="fill:#ECECEC; fill-opacity:1.0000; stroke:none;">
<circle cx="100.0500" cy="79.9492" r="0.3000" /> 
</g>
<g style="fill:#ECECEC; fill-opacity:1.0000; stroke:none;">
<circle cx="102.4500" cy="82.0492" r="0.3000" /> 
</g>
<g style="fill:#ECECEC; fill-opacity:1.0000; stroke:none;">
<circle cx="152.9500" cy="64.0492" r="0.3000" /> 
</g>
<g style="fill:#ECECEC; fill-opacity:1.0000; stroke:none;">
<circle cx="138.4500" cy="69.9492" r="0.3000" /> 
</g>
<g style="fill:#ECECEC; fill-opacity:1.0000; stroke:none;">
<circle cx="124.1500" cy="112.0492" r="0.3000" /> 
</g>
<g style="fill:#ECECEC; fill-opacity:1.0000; stroke:none;">
<circle cx="109.7500" cy="129.9492" r="0.3000" /> 
</g>
<g style="fill:#ECECEC; fill-opacity:1.0000; stroke:none;">
<circle cx="109.7500" cy="90.9492" r="0.3000" /> 
</g>
<g style="fill:#ECECEC; fill-opacity:1.0000; stroke:none;">
<circle cx="154.4500" cy="117.7492" r="0.3000" /> 
</g>
<g style="fill:#ECECEC; fill-opacity:1.0000; stroke:none;">
<circle cx="102.5500" cy="85.0492" r="0.3000" /> 
</g>
<g style="fill:#ECECEC; fill-opacity:1.0000; stroke:none;">
<circle cx="97.1500" cy="137.3492" r="0.3000" /> 
</g>
<g style="fill:#ECECEC; fill-opacity:1.0000; stroke:none;">
<circle cx="152.9500" cy="103.0492" r="0.3000" /> 
</g>
<g style="fill:#ECECEC; fill-opacity:1.0000; stroke:none;">
<circle cx="124.1500" cy="123.9492" r="0.3000" /> 
</g>
<g style="fill:#ECECEC; fill-opacity:1.0000; stroke:none;">
<circle cx="109.7500" cy="85.0492" r="0.3000" /> 
</g>
<g style="fill:#ECECEC; fill-opacity:1.0000; stroke:none;">
<circle cx="131.3500" cy="102.9492" r="0.3000" /> 
</g>
<g style="fill:#ECECEC; fill-opacity:1.0000; stroke:none;">
<circle cx="124.1500" cy="102.9492" r="0.3000" /> 
</g>
<g style="fill:#ECECEC; fill-opacity:1.0000; stroke:none;">
<circle cx="102.5500" cy="112.0492" r="0.3000" /> 
</g>
<g style="fill:#ECECEC; fill-opacity:1.0000; stroke:none;">
<circle cx="102.5500" cy="103.0492" r="0.3000" /> 
</g>
<g style="fill:#ECECEC; fill-opacity:1.0000; stroke:none;">
<circle cx="152.9500" cy="78.9492" r="0.3000" /> 
</g>
<g style="fill:#ECECEC; fill-opacity:1.0000; stroke:none;">
<circle cx="145.6500" cy="79.0492" r="0.3000" /> 
</g>
<g style="fill:#ECECEC; fill-opacity:1.0000; stroke:none;">
<circle cx="116.9500" cy="81.9492" r="0.3000" /> 
</g>
<g style="fill:#ECECEC; fill-opacity:1.0000; stroke:none;">
<circle cx="138.4500" cy="72.9492" r="0.3000" /> 
</g>
<g style="fill:#ECECEC; fill-opacity:1.0000; stroke:none;">
<circle cx="101.1500" cy="139.8492" r="0.3000" /> 
</g>
<g style="fill:#ECECEC; fill-opacity:1.0000; stroke:none;">
<circle cx="131.3500" cy="111.9492" r="0.3000" /> 
</g>
<g style="fill:#ECECEC; fill-opacity:1.0000; stroke:none;">
<circle cx="138.4500" cy="102.9492" r="0.3000" /> 
</g>
<g style="fill:#ECECEC; fill-opacity:1.0000; stroke:none;">
<circle cx="150.6500" cy="120.7492" r="0.3000" /> 
</g>
<g style="fill:#ECECEC; fill-opacity:1.0000; stroke:none;">
<circle cx="145.6500" cy="90.9492" r="0.3000" /> 
</g>
<g style="fill:#ECECEC; fill-opacity:1.0000; stroke:none;">
<circle cx="145.6500" cy="118.0492" r="0.3000" /> 
</g>
<g style="fill:#ECECEC; fill-opacity:1.0000; stroke:none;">
<circle cx="138.4500" cy="111.9492" r="0.3000" /> 
</g>
<g style="fill:#ECECEC; fill-opacity:1.0000; stroke:none;">
<circle cx="138.4500" cy="90.9492" r="0.3000" /> 
</g>
<g style="fill:#ECECEC; fill-opacity:1.0000; stroke:none;">
<circle cx="138.4500" cy="120.9492" r="0.3000" /> 
</g>
<g style="fill:#ECECEC; fill-opacity:1.0000; stroke:none;">
<circle cx="102.5500" cy="120.9492" r="0.3000" /> 
</g>
<g style="fill:#ECECEC; fill-opacity:1.0000; stroke:none;">
<circle cx="124.1500" cy="120.9492" r="0.3000" /> 
</g>
<g style="fill:#ECECEC; fill-opacity:1.0000; stroke:none;">
<circle cx="113.3500" cy="106.0492" r="0.3000" /> 
</g>
<g style="fill:#ECECEC; fill-opacity:1.0000; stroke:none;">
<circle cx="142.0500" cy="94.0492" r="0.3000" /> 
</g>
<g style="fill:#ECECEC; fill-opacity:1.0000; stroke:none;">
<circle cx="127.7500" cy="100.0492" r="0.3000" /> 
<path style="fill:#4D7FC4; fill-opacity:1.0000; stroke:none;fill-rule:evenodd;"
d="M 152.1873,59.8752
152.2197,59.9371
152.2135,60.0067
152.2055,60.0234
152.0868,60.2290
152.0868,60.2290
151.9939,60.4531
151.9312,60.6874
151.8995,60.9279
151.8995,61.1705
151.9312,61.4110
151.9939,61.6453
152.0868,61.8694
152.0868,61.8694
152.2081,62.0795
152.2081,62.0795
152.2081,62.0795
152.3557,62.2719
152.3557,62.2719
152.5273,62.4434
152.5273,62.4434
152.7197,62.5911
152.9298,62.7124
153.1539,62.8052
153.3882,62.8680
153.5686,62.8918
153.6287,62.8997
153.6287,62.8997
153.8713,62.8997
153.9194,62.8933
154.1118,62.8680
154.3461,62.8052
154.5702,62.7124
154.7803,62.5911
154.9727,62.4434
155.1443,62.2719
155.2271,62.1639
155.2836,62.1227
155.3533,62.1186
155.4142,62.1528
155.4470,62.2145
155.4495,62.2394
155.4495,106.3328
155.4298,106.3998
155.3770,106.4456
155.3122,106.4561
155.2478,106.4492
154.6000,106.4492
154.6000,108.0162
154.5430,107.9832
154.4158,107.9492
154.2842,107.9492
154.1570,107.9832
154.1000,108.0162
154.1000,106.4492
153.4522,106.4492
153.3926,106.4556
153.3926,106.4556
153.2579,106.5058
153.2579,106.5058
153.1428,106.5920
153.1428,106.5920
153.0566,106.7071
153.0566,106.7071
153.0064,106.8418
153.0064,106.8418
153.0000,106.9013
153.0000,108.1992
153.9170,108.1992
153.8841,108.2562
153.8500,108.3833
153.8500,108.5150
153.8841,108.6422
153.9170,108.6992
153.0000,108.6992
153.0000,109.9970
153.0064,110.0565
153.0064,110.0566
153.0566,110.1913
153.0566,110.1913
153.1428,110.3064
153.1428,110.3064
153.2579,110.3925
153.2579,110.3925
153.3926,110.4428
153.3926,110.4428
153.4522,110.4492
153.4522,110.4492
154.1000,110.4492
154.1000,108.8822
154.1570,108.9151
154.2842,108.9492
154.4158,108.9492
154.5430,108.9151
154.6000,108.8822
154.6000,110.4492
155.2478,110.4492
155.2478,110.4492
155.3122,110.4422
155.3810,110.4547
155.4321,110.5023
155.4495,110.5655
155.4495,110.6823
155.4298,110.7493
155.3770,110.7951
155.3122,110.8056
155.3058,110.8049
155.2479,110.7987
155.2479,110.7987
153.4521,110.7987
153.4521,110.7987
153.3925,110.8051
153.2577,110.8554
153.2577,110.8554
153.1425,110.9416
153.1425,110.9416
153.0562,111.0568
153.0562,111.0568
153.0059,111.1917
152.9995,111.2513
152.9995,111.2513
152.9995,114.3470
152.9995,114.3470
153.0059,114.4067
153.0562,114.5415
153.0562,114.5415
153.1425,114.6567
153.1425,114.6567
153.2577,114.7430
153.2577,114.7430
153.3925,114.7933
153.3925,114.7933
153.3994,114.7940
153.4521,114.7997
155.2479,114.7997
155.3014,114.7939
155.3122,114.7928
155.3810,114.8052
155.4321,114.8528
155.4495,114.9160
155.4495,119.8198
155.4298,119.8868
155.3770,119.9325
155.3079,119.9425
155.2443,119.9135
155.2078,119.8567
155.2074,119.8569
155.2067,119.8549
155.2065,119.8547
155.2061,119.8533
155.2061,119.8531
155.1132,119.6290
155.1132,119.6290
154.9919,119.4189
154.8443,119.2264
154.8443,119.2264
154.6727,119.0549
154.6727,119.0549
154.4803,118.9072
154.4803,118.9072
154.4803,118.9072
154.2702,118.7859
154.2702,118.7859
154.0461,118.6931
153.8118,118.6303
153.5713,118.5987
153.5713,118.5987
153.3287,118.5987
153.3287,118.5987
153.0882,118.6303
152.8539,118.6931
152.6298,118.7859
152.6298,118.7860
152.4197,118.9072
152.2273,119.0549
152.2273,119.0549
152.0557,119.2264
152.0557,119.2264
151.9081,119.4189
151.7868,119.6290
151.7868,119.6290
151.6939,119.8531
151.6312,120.0874
151.5995,120.3279
151.5995,120.5705
151.6312,120.8110
151.6939,121.0453
151.7868,121.2694
151.7868,121.2694
151.9081,121.4795
151.9081,121.4795
151.9081,121.4795
152.0557,121.6719
152.0557,121.6719
152.2273,121.8434
152.2273,121.8434
152.2808,121.8845
152.4197,121.9911
152.6298,122.1124
152.8539,122.2052
153.0882,122.2680
153.2686,122.2918
153.3287,122.2997
153.5408,122.2997
153.6078,122.3194
153.6536,122.3722
153.6635,122.4413
153.6345,122.5049
153.5821,122.5406
149.8693,123.8534
149.7995,123.8572
149.7387,123.8227
149.7063,123.7608
149.7039,123.7355
149.7043,123.6840
149.7043,123.6840
149.6900,123.6258
149.0758,121.9383
149.0494,121.8845
148.9560,121.7750
148.9560,121.7750
148.9560,121.7750
148.8940,121.7345
148.8355,121.6962
148.6978,121.6546
148.6978,121.6546
148.5539,121.6535
148.4956,121.6678
146.5605,122.3722
145.5866,122.7266
145.5866,122.7266
145.5328,122.7530
145.5328,122.7530
145.4233,122.8464
145.4233,122.8464
145.3445,122.9669
145.3028,123.1046
145.3028,123.1046
145.3017,123.2486
145.3161,123.3068
145.5058,123.8279
145.9303,124.9942
145.9567,125.0480
145.9567,125.0480
145.9634,125.0559
145.9919,125.1197
145.9814,125.1888
145.9352,125.2412
145.9104,125.2533
99.1689,141.7809
99.0991,141.7847
99.0384,141.7501
99.0060,141.6883
99.0121,141.6187
99.0399,141.5763
99.1443,141.4719
99.2919,141.2795
99.4132,141.0694
99.5061,140.8453
99.5688,140.6110
99.6005,140.3705
99.6005,140.1279
99.5688,139.8874
99.5061,139.6531
99.4132,139.4290
99.2919,139.2189
99.1443,139.0264
99.1443,139.0264
98.9727,138.8549
98.9727,138.8549
98.7803,138.7072
98.7803,138.7072
98.7803,138.7072
98.5702,138.5859
98.5702,138.5859
98.3461,138.4931
98.1118,138.4303
97.8713,138.3987
97.8713,138.3987
97.6287,138.3987
97.6287,138.3987
97.3882,138.4303
97.1539,138.4931
96.9298,138.5859
96.9298,138.5860
96.7197,138.7072
96.5273,138.8549
96.5273,138.8549
96.3557,139.0264
96.3557,139.0264
96.2081,139.2189
96.0868,139.4290
96.0868,139.4290
96.0691,139.4717
96.0252,139.5261
95.9589,139.5482
95.8912,139.5309
95.8436,139.4798
95.8305,139.4243
95.8305,106.0492
112.5444,106.0492
112.5444,106.0492
112.5646,106.2284
112.5646,106.2284
112.6242,106.3987
112.6915,106.5058
112.7202,106.5514
112.8477,106.6790
113.0005,106.7750
113.1707,106.8345
113.1707,106.8345
113.3500,106.8547
113.3500,106.8547
113.3500,106.8547
113.5292,106.8345
113.5293,106.8345
113.5293,106.8345
113.6995,106.7750
113.8523,106.6790
113.9798,106.5514
114.0758,106.3987
114.1354,106.2284
114.1556,106.0492
114.1354,105.8699
114.0758,105.6997
113.9798,105.5469
113.8523,105.4194
113.6995,105.3234
113.5293,105.2638
113.5292,105.2638
113.3500,105.2436
113.3500,105.2436
113.1707,105.2638
113.1707,105.2638
113.0005,105.3234
112.8477,105.4194
112.7202,105.5469
112.6242,105.6996
112.5646,105.8699
112.5646,105.8699
112.5444,106.0492
95.8305,106.0492
95.8305,100.0492
126.9444,100.0492
126.9444,100.0492
126.9646,100.2284
126.9646,100.2284
127.0242,100.3987
127.1202,100.5514
127.2477,100.6790
127.4005,100.7750
127.5707,100.8345
127.5707,100.8345
127.7500,100.8547
127.7500,100.8547
127.7500,100.8547
127.9292,100.8345
127.9293,100.8345
127.9293,100.8345
128.0995,100.7750
128.2523,100.6790
128.3798,100.5514
128.4758,100.3987
128.5354,100.2284
128.5556,100.0492
128.5354,99.8699
128.4758,99.6997
128.3798,99.5469
128.2523,99.4194
128.0995,99.3234
127.9293,99.2638
127.9292,99.2638
127.7500,99.2436
127.7500,99.2436
127.5707,99.2638
127.5707,99.2638
127.4005,99.3234
127.2477,99.4194
127.1202,99.5469
127.0242,99.6996
126.9646,99.8699
126.9646,99.8699
126.9444,100.0492
95.8305,100.0492
95.8305,93.2513
96.2000,93.2513
96.2000,94.5492
97.1170,94.5492
97.0841,94.6062
97.0500,94.7333
97.0500,94.8650
97.0841,94.9922
97.1170,95.0492
96.2000,95.0492
96.2000,96.3470
96.2064,96.4065
96.2064,96.4066
96.2566,96.5413
96.2566,96.5413
96.3428,96.6564
96.3428,96.6564
96.4579,96.7425
96.4579,96.7425
96.5926,96.7928
96.5926,96.7928
96.6522,96.7992
96.6522,96.7992
97.3000,96.7992
97.3000,95.2322
97.3570,95.2651
97.4842,95.2992
97.6158,95.2992
97.7430,95.2651
97.8000,95.2322
97.8000,96.7992
98.4478,96.7992
98.4478,96.7992
98.5074,96.7928
98.5074,96.7928
98.6421,96.7425
98.6421,96.7425
98.7572,96.6564
98.7572,96.6564
98.8434,96.5413
98.8434,96.5413
98.8936,96.4066
98.8936,96.4065
98.9000,96.3470
98.9000,96.3470
98.9000,95.0492
97.9830,95.0492
98.0159,94.9922
98.0500,94.8650
98.0500,94.7333
98.0159,94.6062
97.9830,94.5492
98.9000,94.5492
98.9000,94.0492
141.2444,94.0492
141.2444,94.0492
141.2646,94.2284
141.2646,94.2284
141.3242,94.3987
141.3244,94.3991
141.4202,94.5514
141.5477,94.6790
141.7005,94.7750
141.8707,94.8345
141.8707,94.8345
142.0500,94.8547
142.0500,94.8547
142.0500,94.8547
142.2292,94.8345
142.2293,94.8345
142.2293,94.8345
142.3995,94.7750
142.5523,94.6790
142.6798,94.5514
142.7758,94.3987
142.8354,94.2284
142.8556,94.0492
142.8354,93.8699
142.7758,93.6997
142.6798,93.5469
142.5523,93.4194
142.3995,93.3234
142.2293,93.2638
142.2292,93.2638
142.0500,93.2436
142.0500,93.2436
141.8707,93.2638
141.8707,93.2638
141.7005,93.3234
141.5477,93.4194
141.4202,93.5469
141.3242,93.6996
141.2646,93.8699
141.2646,93.8699
141.2444,94.0492
98.9000,94.0492
98.9000,93.2513
98.9000,93.2513
98.8936,93.1918
98.8936,93.1918
98.8434,93.0571
98.8434,93.0571
98.7572,92.9420
98.7572,92.9420
98.6421,92.8558
98.6421,92.8558
98.5074,92.8056
98.5074,92.8056
98.4478,92.7992
97.8000,92.7992
97.8000,94.3662
97.7430,94.3332
97.6158,94.2992
97.4842,94.2992
97.3570,94.3332
97.3000,94.3662
97.3000,92.7992
96.6522,92.7992
96.5926,92.8056
96.5926,92.8056
96.4579,92.8558
96.4579,92.8558
96.3428,92.9420
96.3428,92.9420
96.2566,93.0571
96.2566,93.0571
96.2064,93.1918
96.2064,93.1918
96.2000,93.2513
95.8305,93.2513
95.8305,88.4513
96.0995,88.4513
96.0995,91.5470
96.0995,91.5470
96.1059,91.6067
96.1562,91.7415
96.1562,91.7415
96.2425,91.8567
96.2425,91.8567
96.3577,91.9430
96.3577,91.9430
96.4925,91.9933
96.4925,91.9933
96.4994,91.9940
96.5521,91.9997
98.3479,91.9997
98.4075,91.9933
98.5423,91.9430
98.6575,91.8567
98.7438,91.7415
98.7941,91.6067
98.8005,91.5470
98.8005,88.4513
98.7941,88.3917
98.7438,88.2568
98.7438,88.2568
98.7438,88.2568
98.6575,88.1416
98.6575,88.1416
98.5423,88.0554
98.5423,88.0554
98.4075,88.0051
98.4075,88.0051
98.3479,87.9987
98.3479,87.9987
98.3479,87.9987
98.3479,87.9987
96.5521,87.9987
96.5521,87.9987
96.4925,88.0051
96.3577,88.0554
96.3577,88.0554
96.2425,88.1416
96.2425,88.1416
96.1562,88.2568
96.1562,88.2568
96.1059,88.3917
96.0995,88.4513
96.0995,88.4513
96.0995,88.4513
95.8305,88.4513
95.8305,82.1615
95.8502,82.0944
95.9030,82.0487
95.9721,82.0387
96.0357,82.0678
96.0619,82.0995
96.1081,82.1795
96.1081,82.1795
96.1081,82.1795
96.2557,82.3719
96.2557,82.3719
96.4273,82.5434
96.4273,82.5434
96.6197,82.6911
96.8298,82.8124
97.0539,82.9052
97.2882,82.9680
97.4686,82.9918
97.5287,82.9997
97.5287,82.9997
97.7713,82.9997
97.8194,82.9933
98.0118,82.9680
98.2461,82.9052
98.4702,82.8124
98.6803,82.6911
98.8727,82.5434
99.0443,82.3719
99.1919,82.1795
99.3132,81.9694
99.4061,81.7453
99.4688,81.5110
99.5005,81.2705
99.5005,81.0279
99.4688,80.7874
99.4061,80.5531
99.3132,80.3290
99.1919,80.1189
99.1310,80.0395
99.0625,79.9502
101.1412,79.9502
101.1617,80.0927
101.1617,80.0927
101.2215,80.2236
101.2215,80.2236
101.2302,80.2343
101.2591,80.2703
102.5289,81.5401
102.5289,81.5401
102.5289,81.5401
102.5756,81.5777
102.7065,81.6375
102.7065,81.6375
102.7065,81.6375
102.7777,81.6477
102.8490,81.6579
102.8490,81.6579
102.8490,81.6579
102.9914,81.6375
103.1223,81.5777
103.1690,81.5401
105.3580,79.3510
105.3957,79.3043
105.4554,79.1734
105.4759,79.0310
105.4554,78.8885
105.3957,78.7576
105.3580,78.7109
104.0883,77.4411
104.0882,77.4411
104.0416,77.4035
103.9107,77.3437
103.9107,77.3437
103.7682,77.3232
103.6257,77.3437
103.6257,77.3437
103.4948,77.4035
103.4948,77.4035
103.4481,77.4411
103.4481,77.4411
101.2591,79.6302
101.2591,79.6302
101.2215,79.6768
101.1617,79.8078
101.1617,79.8078
101.1412,79.9502
99.0625,79.9502
99.0443,79.9264
99.0443,79.9264
98.8727,79.7549
98.8727,79.7549
98.6803,79.6072
98.6803,79.6072
98.6803,79.6072
98.4702,79.4860
98.4702,79.4859
98.2461,79.3931
98.0118,79.3303
97.7713,79.2987
97.7713,79.2987
97.7537,79.2987
97.6866,79.2790
97.6409,79.2262
97.6309,79.1570
97.6600,79.0935
97.7123,79.0578
98.1227,78.9127
152.0567,59.8445
152.1265,59.8407
Z" /> 
</g>
<g style="fill:#FFFFFF; fill-opacity:1.0000; stroke:none;">
<circle cx="109.7500" cy="82.0492" r="0.1500" /> 
</g>
<g style="fill:#FFFFFF; fill-opacity:1.0000; stroke:none;">
<circle cx="130.2500" cy="69.4492" r="0.1500" /> 
</g>
<g style="fill:#FFFFFF; fill-opacity:1.0000; stroke:none;">
<circle cx="116.9500" cy="129.9492" r="0.1500" /> 
</g>
<g style="fill:#FFFFFF; fill-opacity:1.0000; stroke:none;">
<circle cx="145.6500" cy="103.0492" r="0.1500" /> 
</g>
<g style="fill:#FFFFFF; fill-opacity:1.0000; stroke:none;">
<circle cx="124.1500" cy="127.0492" r="0.1500" /> 
</g>
<g style="fill:#FFFFFF; fill-opacity:1.0000; stroke:none;">
<circle cx="138.4500" cy="117.9492" r="0.1500" /> 
</g>
<g style="fill:#FFFFFF; fill-opacity:1.0000; stroke:none;">
<circle cx="131.3500" cy="72.9492" r="0.1500" /> 
</g>
<g style="fill:#FFFFFF; fill-opacity:1.0000; stroke:none;">
<circle cx="116.9500" cy="126.9492" r="0.1500" /> 
</g>
<g style="fill:#FFFFFF; fill-opacity:1.0000; stroke:none;">
<circle cx="152.9500" cy="114.9492" r="0.1500" /> 
</g>
<g style="fill:#FFFFFF; fill-opacity:1.0000; stroke:none;">
<circle cx="145.6500" cy="66.9492" r="0.1500" /> 
</g>
<g style="fill:#FFFFFF; fill-opacity:1.0000; stroke:none;">
<circle cx="131.3500" cy="75.9492" r="0.1500" /> 
</g>
<g style="fill:#FFFFFF; fill-opacity:1.0000; stroke:none;">
<circle cx="109.7500" cy="127.0492" r="0.1500" /> 
</g>
<g style="fill:#FFFFFF; fill-opacity:1.0000; stroke:none;">
<circle cx="116.9500" cy="78.9492" r="0.1500" /> 
</g>
<g style="fill:#FFFFFF; fill-opacity:1.0000; stroke:none;">
<circle cx="145.6500" cy="112.0492" r="0.1500" /> 
</g>
<g style="fill:#FFFFFF; fill-opacity:1.0000; stroke:none;">
<circle cx="154.4500" cy="64.4492" r="0.1500" /> 
</g>
<g style="fill:#FFFFFF; fill-opacity:1.0000; stroke:none;">
<circle cx="131.3500" cy="121.0492" r="0.1500" /> 
</g>
<g style="fill:#FFFFFF; fill-opacity:1.0000; stroke:none;">
<circle cx="129.8500" cy="129.1492" r="0.1500" /> 
</g>
<g style="fill:#FFFFFF; fill-opacity:1.0000; stroke:none;">
<circle cx="145.6500" cy="69.9492" r="0.1500" /> 
</g>
<g style="fill:#FFFFFF; fill-opacity:1.0000; stroke:none;">
<circle cx="116.9500" cy="102.9492" r="0.1500" /> 
</g>
<g style="fill:#FFFFFF; fill-opacity:1.0000; stroke:none;">
<circle cx="145.6500" cy="114.9492" r="0.1500" /> 
</g>
<g style="fill:#FFFFFF; fill-opacity:1.0000; stroke:none;">
<circle cx="116.9500" cy="120.9492" r="0.1500" /> 
</g>
<g style="fill:#FFFFFF; fill-opacity:1.0000; stroke:none;">
<circle cx="124.1500" cy="90.8492" r="0.1500" /> 
</g>
<g style="fill:#FFFFFF; fill-opacity:1.0000; stroke:none;">
<circle cx="123.1500" cy="72.4492" r="0.1500" /> 
</g>
<g style="fill:#FFFFFF; fill-opacity:1.0000; stroke:none;">
<circle cx="102.5500" cy="129.9492" r="0.1500" /> 
</g>
<g style="fill:#FFFFFF; fill-opacity:1.0000; stroke:none;">
<circle cx="124.1500" cy="78.9492" r="0.1500" /> 
</g>
<g style="fill:#FFFFFF; fill-opacity:1.0000; stroke:none;">
<circle cx="150.7500" cy="61.8492" r="0.1500" /> 
</g>
<g style="fill:#FFFFFF; fill-opacity:1.0000; stroke:none;">
<circle cx="131.3500" cy="91.0492" r="0.1500" /> 
</g>
<g style="fill:#FFFFFF; fill-opacity:1.0000; stroke:none;">
<circle cx="102.5500" cy="132.9492" r="0.1500" /> 
</g>
<g style="fill:#FFFFFF; fill-opacity:1.0000; stroke:none;">
<circle cx="152.9500" cy="66.9492" r="0.1500" /> 
</g>
<g style="fill:#FFFFFF; fill-opacity:1.0000; stroke:none;">
<circle cx="109.7500" cy="121.0492" r="0.1500" /> 
</g>
<g style="fill:#FFFFFF; fill-opacity:1.0000; stroke:none;">
<circle cx="124.1500" cy="75.9492" r="0.1500" /> 
</g>
<g style="fill:#FFFFFF; fill-opacity:1.0000; stroke:none;">
<circle cx="116.9500" cy="90.9492" r="0.1500" /> 
</g>
<g style="fill:#FFFFFF; fill-opacity:1.0000; stroke:none;">
<circle cx="102.5500" cy="88.0492" r="0.1500" /> 
</g>
<g style="fill:#FFFFFF; fill-opacity:1.0000; stroke:none;">
<circle cx="116.9500" cy="112.0492" r="0.1500" /> 
</g>
<g style="fill:#FFFFFF; fill-opacity:1.0000; stroke:none;">
<circle cx="131.3500" cy="124.0492" r="0.1500" /> 
</g>
<g style="fill:#FFFFFF; fill-opacity:1.0000; stroke:none;">
<circle cx="152.9500" cy="90.9492" r="0.1500" /> 
</g>
<g style="fill:#FFFFFF; fill-opacity:1.0000; stroke:none;">
<circle cx="109.7500" cy="112.0492" r="0.1500" /> 
</g>
<g style="fill:#FFFFFF; fill-opacity:1.0000; stroke:none;">
<circle cx="109.7500" cy="103.0492" r="0.1500" /> 
</g>
<g style="fill:#FFFFFF; fill-opacity:1.0000; stroke:none;">
<circle cx="138.4500" cy="78.9492" r="0.1500" /> 
</g>
<g style="fill:#FFFFFF; fill-opacity:1.0000; stroke:none;">
<circle cx="144.7500" cy="124.5492" r="0.1500" /> 
</g>
<g style="fill:#FFFFFF; fill-opacity:1.0000; stroke:none;">
<circle cx="102.5500" cy="91.0492" r="0.1500" /> 
</g>
<g style="fill:#FFFFFF; fill-opacity:1.0000; stroke:none;">
<circle cx="96.8500" cy="83.7492" r="0.1500" /> 
</g>
<g style="fill:#FFFFFF; fill-opacity:1.0000; stroke:none;">
<circle cx="119.6500" cy="133.1492" r="0.1500" /> 
</g>
<g style="fill:#FFFFFF; fill-opacity:1.0000; stroke:none;">
<circle cx="131.3500" cy="78.9492" r="0.1500" /> 
</g>
<g style="fill:#FFFFFF; fill-opacity:1.0000; stroke:none;">
<circle cx="100.0500" cy="79.9492" r="0.1500" /> 
</g>
<g style="fill:#FFFFFF; fill-opacity:1.0000; stroke:none;">
<circle cx="102.4500" cy="82.0492" r="0.1500" /> 
</g>
<g style="fill:#FFFFFF; fill-opacity:1.0000; stroke:none;">
<circle cx="152.9500" cy="64.0492" r="0.1500" /> 
</g>
<g style="fill:#FFFFFF; fill-opacity:1.0000; stroke:none;">
<circle cx="138.4500" cy="69.9492" r="0.1500" /> 
</g>
<g style="fill:#FFFFFF; fill-opacity:1.0000; stroke:none;">
<circle cx="124.1500" cy="112.0492" r="0.1500" /> 
</g>
<g style="fill:#FFFFFF; fill-opacity:1.0000; stroke:none;">
<circle cx="109.7500" cy="129.9492" r="0.1500" /> 
</g>
<g style="fill:#FFFFFF; fill-opacity:1.0000; stroke:none;">
<circle cx="109.7500" cy="90.9492" r="0.1500" /> 
</g>
<g style="fill:#FFFFFF; fill-opacity:1.0000; stroke:none;">
<circle cx="154.4500" cy="117.7492" r="0.1500" /> 
</g>
<g style="fill:#FFFFFF; fill-opacity:1.0000; stroke:none;">
<circle cx="102.5500" cy="85.0492" r="0.1500" /> 
</g>
<g style="fill:#FFFFFF; fill-opacity:1.0000; stroke:none;">
<circle cx="97.1500" cy="137.3492" r="0.1500" /> 
</g>
<g style="fill:#FFFFFF; fill-opacity:1.0000; stroke:none;">
<circle cx="152.9500" cy="103.0492" r="0.1500" /> 
</g>
<g style="fill:#FFFFFF; fill-opacity:1.0000; stroke:none;">
<circle cx="124.1500" cy="123.9492" r="0.1500" /> 
</g>
<g style="fill:#FFFFFF; fill-opacity:1.0000; stroke:none;">
<circle cx="109.7500" cy="85.0492" r="0.1500" /> 
</g>
<g style="fill:#FFFFFF; fill-opacity:1.0000; stroke:none;">
<circle cx="131.3500" cy="102.9492" r="0.1500" /> 
</g>
<g style="fill:#FFFFFF; fill-opacity:1.0000; stroke:none;">
<circle cx="124.1500" cy="102.9492" r="0.1500" /> 
</g>
<g style="fill:#FFFFFF; fill-opacity:1.0000; stroke:none;">
<circle cx="102.5500" cy="112.0492" r="0.1500" /> 
</g>
<g style="fill:#FFFFFF; fill-opacity:1.0000; stroke:none;">
<circle cx="102.5500" cy="103.0492" r="0.1500" /> 
</g>
<g style="fill:#FFFFFF; fill-opacity:1.0000; stroke:none;">
<circle cx="152.9500" cy="78.9492" r="0.1500" /> 
</g>
<g style="fill:#FFFFFF; fill-opacity:1.0000; stroke:none;">
<circle cx="145.6500" cy="79.0492" r="0.1500" /> 
</g>
<g style="fill:#FFFFFF; fill-opacity:1.0000; stroke:none;">
<circle cx="116.9500" cy="81.9492" r="0.1500" /> 
</g>
<g style="fill:#FFFFFF; fill-opacity:1.0000; stroke:none;">
<circle cx="138.4500" cy="72.9492" r="0.1500" /> 
</g>
<g style="fill:#FFFFFF; fill-opacity:1.0000; stroke:none;">
<circle cx="101.1500" cy="139.8492" r="0.1500" /> 
</g>
<g style="fill:#FFFFFF; fill-opacity:1.0000; stroke:none;">
<circle cx="131.3500" cy="111.9492" r="0.1500" /> 
</g>
<g style="fill:#FFFFFF; fill-opacity:1.0000; stroke:none;">
<circle cx="138.4500" cy="102.9492" r="0.1500" /> 
</g>
<g style="fill:#FFFFFF; fill-opacity:1.0000; stroke:none;">
<circle cx="150.6500" cy="120.7492" r="0.1500" /> 
</g>
<g style="fill:#FFFFFF; fill-opacity:1.0000; stroke:none;">
<circle cx="145.6500" cy="90.9492" r="0.1500" /> 
</g>
<g style="fill:#FFFFFF; fill-opacity:1.0000; stroke:none;">
<circle cx="145.6500" cy="118.0492" r="0.1500" /> 
</g>
<g style="fill:#FFFFFF; fill-opacity:1.0000; stroke:none;">
<circle cx="138.4500" cy="111.9492" r="0.1500" /> 
</g>
<g style="fill:#FFFFFF; fill-opacity:1.0000; stroke:none;">
<circle cx="138.4500" cy="90.9492" r="0.1500" /> 
</g>
<g style="fill:#FFFFFF; fill-opacity:1.0000; stroke:none;">
<circle cx="138.4500" cy="120.9492" r="0.1500" /> 
</g>
<g style="fill:#FFFFFF; fill-opacity:1.0000; stroke:none;">
<circle cx="102.5500" cy="120.9492" r="0.1500" /> 
</g>
<g style="fill:#FFFFFF; fill-opacity:1.0000; stroke:none;">
<circle cx="124.1500" cy="120.9492" r="0.1500" /> 
</g>
<g style="fill:#FFFFFF; fill-opacity:1.0000; stroke:none;">
<circle cx="113.3500" cy="106.0492" r="0.1500" /> 
</g>
<g style="fill:#FFFFFF; fill-opacity:1.0000; stroke:none;">
<circle cx="142.0500" cy="94.0492" r="0.1500" /> 
</g>
<g style="fill:#FFFFFF; fill-opacity:1.0000; stroke:none;">
<circle cx="127.7500" cy="100.0492" r="0.1500" /> 
</g>
<g style="fill:#FFFFFF; fill-opacity:1.0000; stroke:none;">
<circle cx="103.3086" cy="79.4906" r="0.5000" /> 
</g>
<g style="fill:#FFFFFF; fill-opacity:1.0000; stroke:none;">
<circle cx="97.7500" cy="140.2492" r="1.6000" /> 
</g>
<g style="fill:#FFFFFF; fill-opacity:1.0000; stroke:none;">
<circle cx="153.7500" cy="61.0492" r="1.6000" /> 
</g>
<g style="fill:#FFFFFF; fill-opacity:1.0000; stroke:none;">
<circle cx="97.5500" cy="94.7992" r="0.5000" /> 
</g>
<g style="fill:#FFFFFF; fill-opacity:1.0000; stroke:none;">
<circle cx="154.3500" cy="108.4492" r="0.5000" /> 
</g>
<g style="fill:#FFFFFF; fill-opacity:1.0000; stroke:none;">
<circle cx="154.3500" cy="112.7992" r="0.5000" /> 
</g>
<g style="fill:#FFFFFF; fill-opacity:1.0000; stroke:none;">
<circle cx="97.4500" cy="89.9992" r="0.5000" /> 
</g>
<g style="fill:#FFFFFF; fill-opacity:1.0000; stroke:none;">
<circle cx="153.4500" cy="120.4492" r="1.6000" /> 
</g>
<g style="fill:#FFFFFF; fill-opacity:1.0000; stroke:none;">
<circle cx="97.6500" cy="81.1492" r="1.6000" /> 
</g>
<g style="fill:#FFFFFF; fill-opacity:1.0000; stroke:none;">
<circle cx="147.5030" cy="123.4663" r="0.5000" /> 
</g> 
</svg>
