<?xml version="1.0" encoding="UTF-8" standalone="no"?>
<!DOCTYPE svg PUBLIC "-//W3C//DTD SVG 1.1//EN" "http://www.w3.org/Graphics/SVG/1.1/DTD/svg11.dtd">
<svg width="100%" height="100%" viewBox="0 0 10000 10000" version="1.1" xmlns="http://www.w3.org/2000/svg" xmlns:xlink="http://www.w3.org/1999/xlink" xml:space="preserve" xmlns:serif="http://www.serif.com/" style="fill-rule:evenodd;clip-rule:evenodd;stroke-linejoin:round;stroke-miterlimit:2;">
    <g id="BSilkS">
        <g id="g842">
            <g id="g834">
                <path id="path21" d="M4543.8,7715.32L4552.54,7747.76C4557.32,7765.6 4560.38,7785.51 4559.27,7792.03C4557.28,7803.72 4495.07,7901.89 4488.19,7904.23C4486.19,7904.83 4452.51,7906.93 4413.19,7908.83C4373.88,7910.73 4338.73,7910.86 4335.09,7909.14C4320.95,7902.38 4347.09,7863.65 4405.07,7805.43C4454.09,7756.19 4473.02,7741.91 4504.69,7730.01L4543.8,7715.32ZM4565.68,7846.29C4573.03,7847.26 4550.12,7882.42 4538.21,7886.85C4532.77,7888.86 4534.21,7881.55 4541.47,7870.09L4541.42,7870.09C4548.51,7858.91 4558.6,7848.28 4563.82,7846.55C4564.59,7846.29 4565.19,7846.23 4565.68,7846.29L4565.68,7846.29Z" style="fill-rule:nonzero;"/>
                <path id="path420" d="M4600.18,7701.2C4622.31,7701.5 4674.32,7716.16 4677.2,7724.32C4678.78,7728.8 4667.29,7740.9 4651.7,7751.27C4636.14,7761.72 4622.51,7774.1 4621.44,7778.84C4617.39,7797.59 4601.89,7782.31 4595.68,7753.39C4592.09,7736.7 4587.86,7719.03 4586.37,7714.13C4584.85,7709.25 4587.77,7703.8 4592.78,7702.03C4594.5,7701.43 4597.02,7701.16 4600.18,7701.2L4600.18,7701.2Z" style="fill-rule:nonzero;"/>
                <path id="path418" d="M2641.96,7524.51C2628.1,7524.2 2603.26,7534.35 2599.39,7544.94C2596.65,7552.35 2579.6,7580.87 2561.53,7608.3C2543.43,7635.71 2532.04,7656.94 2536.18,7655.48C2540.31,7654 2550.06,7642.41 2557.85,7629.72L2557.8,7629.66C2581.28,7591.32 2600.81,7569.46 2616.35,7563.97C2633.74,7557.86 2653.95,7537.14 2650.96,7528.65C2649.97,7525.85 2646.58,7524.61 2641.96,7524.51L2641.96,7524.51Z" style="fill-rule:nonzero;"/>
                <path id="path416" d="M5576.19,6588.23C5577.4,6588.46 5578.3,6589.43 5578.88,6591.07C5582.57,6601.52 5562.53,6624.05 5542.62,6631.88C5535.3,6634.69 5530.3,6635.62 5531.5,6633.9L5531.5,6633.85C5532.65,6632.14 5543.06,6619.61 5554.62,6606.23C5565.83,6593.2 5572.55,6587.49 5576.19,6588.23L5576.19,6588.23Z" style="fill-rule:nonzero;"/>
                <path id="path414" d="M5609.24,6530.03C5616.36,6527.52 5617.38,6546.9 5610.9,6562.36C5603.23,6580.7 5593.37,6587.47 5589.64,6576.9C5588.34,6573.27 5589.83,6567.16 5592.9,6563.35C5595.96,6559.52 5595.91,6554.42 5592.79,6551.91C5588.09,6548.15 5598.97,6533.65 5609.24,6530.03L5609.24,6530.03Z" style="fill-rule:nonzero;"/>
                <path id="path412" d="M5839.94,6529.78C5847.16,6529.83 5841.37,6538.04 5818.94,6560.97C5800.66,6579.63 5784.85,6598.78 5783.81,6603.49C5782.79,6608.22 5779.55,6610.9 5776.57,6609.43C5773.66,6608.04 5774.94,6598.12 5779.42,6587.35L5779.47,6587.45C5790.74,6560.48 5816.82,6534.11 5836.06,6530.24C5837.61,6529.94 5838.9,6529.77 5839.94,6529.78L5839.94,6529.78ZM5893.47,6535.73C5910.82,6535.7 5912.78,6549.01 5892.28,6556.26C5881.12,6560.2 5867.47,6570.18 5862.02,6578.55C5850.62,6595.85 5828.85,6606.14 5825.25,6595.93L5825.19,6595.88C5821.51,6585.48 5867.45,6540.05 5885.09,6536.6C5888.18,6536 5890.99,6535.73 5893.47,6535.72L5893.47,6535.73Z" style="fill-rule:nonzero;"/>
                <path id="path410" d="M5593.88,6512.45C5596.26,6512.81 5597.48,6515.16 5596.72,6518.71C5595.71,6523.4 5593.45,6527.77 5591.76,6528.38C5590.02,6528.98 5587.54,6526.31 5586.17,6522.43C5584.79,6518.57 5587.05,6514.2 5591.14,6512.76C5592.16,6512.4 5593.08,6512.33 5593.88,6512.45L5593.88,6512.45Z" style="fill-rule:nonzero;"/>
                <path id="path408" d="M5659.88,6403.26C5661.27,6402.58 5662.47,6403.36 5663.29,6405.63C5666.6,6414.99 5661.24,6426.24 5654.91,6423.22C5652.22,6421.95 5652.43,6415.82 5655.38,6409.62L5655.28,6409.46C5656.9,6406.05 5658.49,6403.93 5659.88,6403.25L5659.88,6403.26Z" style="fill-rule:nonzero;"/>
                <path id="path406" d="M4473.14,6174.99C4470.22,6174.57 4463.94,6178.01 4451.78,6185.03C4418.62,6204.14 4344.72,6270.91 4320.81,6303.43C4310.41,6317.58 4295.71,6331.32 4288.17,6333.99C4265.9,6341.87 4255.25,6373.86 4265.36,6402.48C4274.27,6427.68 4274.56,6427.82 4283.98,6410.45C4289.24,6400.75 4294.69,6396.03 4296.03,6399.94C4297.45,6403.95 4295.21,6412.8 4291.12,6419.65C4282.98,6433.27 4284.58,6445.65 4294.02,6442.31C4297.31,6441.18 4309.07,6426.81 4320.19,6410.39L4320.24,6410.39C4331.37,6393.97 4347.39,6364.96 4355.83,6345.84C4364.27,6326.74 4393.76,6287.47 4421.37,6258.63C4448.98,6229.8 4472.78,6198.16 4474.28,6188.34C4475.59,6179.73 4476.06,6175.41 4473.14,6174.99L4473.14,6174.99Z" style="fill-rule:nonzero;"/>
                <path id="path404" d="M6133.22,6100.25C6141.37,6097.35 6136.94,6122.02 6121.43,6165.84C6114.27,6186.04 6104.07,6218.59 6098.77,6238.15C6090.44,6268.79 6078.89,6286.43 6074.77,6274.77C6072.58,6268.57 6104.79,6154.59 6116.25,6127.97C6122.3,6113.88 6129.93,6101.39 6133.22,6100.25Z" style="fill-rule:nonzero;"/>
                <path id="path402" d="M3848.35,5717.27C3847.22,5717.17 3846.22,5719.71 3845.35,5724.98C3842.47,5742.5 3855.28,5831.46 3861.08,5834.22C3863.68,5835.47 3863.45,5813.27 3860.56,5784.88C3856.13,5741.4 3851.74,5717.57 3848.35,5717.27Z" style="fill-rule:nonzero;"/>
                <path id="path400" d="M3834.8,5636.99C3833.81,5636.51 3833.22,5637.78 3833.09,5640.98C3832.85,5646.76 3835.28,5652.73 3838.42,5654.22C3841.57,5655.72 3841.75,5651.11 3838.83,5643.77L3838.83,5643.72C3837.21,5639.73 3835.79,5637.47 3834.8,5636.99L3834.8,5636.99Z" style="fill-rule:nonzero;"/>
                <path id="path396" d="M3969.13,5413.8C3969.93,5414.18 3970.1,5417.12 3969.96,5422.8C3969.77,5430.65 3967.25,5435.94 3964.32,5434.54C3961.39,5433.13 3961.56,5426.71 3964.68,5420.27C3966.93,5415.61 3968.33,5413.42 3969.13,5413.8L3969.13,5413.8Z" style="fill-rule:nonzero;"/>
                <path id="path392" d="M3902.56,5397.4C3901.36,5397.56 3900.1,5397.85 3898.73,5398.34C3892.94,5400.37 3889.88,5406.8 3891.9,5412.56C3895.78,5423.52 3905.1,5423.57 3910.32,5412.67L3910.32,5412.61C3914.87,5403.05 3910.95,5396.35 3902.56,5397.41L3902.56,5397.4Z" style="fill-rule:nonzero;"/>
                <path id="path390" d="M5230.97,5277.81C5231.97,5278.29 5233.35,5280.57 5234.95,5284.59C5237.96,5291.86 5237.68,5296.57 5234.54,5295.09C5231.39,5293.61 5229.02,5287.62 5229.21,5281.85L5229.21,5281.8C5229.35,5278.61 5229.97,5277.33 5230.97,5277.81L5230.97,5277.81Z" style="fill-rule:nonzero;"/>
                <path id="path388" d="M3414.94,5277.3C3411.18,5275.48 3413.86,5285.67 3423.53,5313.71C3440.64,5363.36 3505.17,5509.85 3525.01,5544.2C3546.32,5581.08 3550.77,5562.94 3531.38,5518.28C3466.15,5368.13 3432.28,5295.94 3420.84,5282.88C3418.17,5279.83 3416.2,5277.9 3414.94,5277.3ZM3471.74,5279.99C3467.43,5284.72 3512.77,5389.26 3529.2,5410.65C3535.91,5419.36 3528.52,5396.12 3512.19,5357.47C3496.29,5319.68 3478.78,5285.02 3473.29,5280.45C3472.54,5279.83 3472.03,5279.67 3471.74,5279.99L3471.74,5279.99ZM3482.19,5371.9C3476.56,5373.8 3489.51,5404.83 3518.55,5459.37C3524.87,5471.09 3534.06,5481.65 3539.09,5482.75C3545.28,5484.1 3543.86,5476.47 3534.53,5458.96C3527.01,5444.8 3513.47,5418.95 3504.53,5401.49C3495.58,5384.04 3485.53,5370.72 3482.19,5371.9ZM3997.32,5382.25C3996.33,5381.77 3995.69,5383.09 3995.56,5386.28C3995.34,5392.09 3997.76,5398.03 4000.89,5399.52C4004.04,5401 4004.31,5396.37 4001.36,5388.97L4001.3,5389.03C3999.67,5385.01 3998.31,5382.73 3997.32,5382.25L3997.32,5382.25ZM3703.88,5555.79C3702.55,5555.4 3701.14,5556.78 3699.69,5559.82C3693.97,5571.89 3696.81,5715.86 3704.55,5806.29C3707.99,5846.31 3712.86,5906.52 3715.42,5940.11C3718.73,5983.59 3723.46,6004.62 3731.87,6013.19C3743.02,6024.57 3743.69,6023.93 3744.43,6001.19L3744.49,6001.3C3744.96,5988.11 3740.32,5924.06 3734.19,5858.95C3728.07,5793.84 3720.93,5703.99 3718.32,5659.34C3714.34,5591.45 3709.65,5557.46 3703.88,5555.79L3703.88,5555.79Z" style="fill-rule:nonzero;"/>
                <path id="path386" d="M5557,5183.21C5564.95,5182.29 5573.81,5201.71 5581.15,5237.88C5596.94,5315.69 5592.49,5322.63 5567.55,5259.19C5554.22,5225.16 5546.61,5196.81 5549.39,5191.02C5551.76,5186.07 5554.35,5183.51 5557,5183.21Z" style="fill-rule:nonzero;"/>
                <path id="path384" d="M5490.74,5181.66C5492.64,5181 5496.29,5183.17 5501.13,5186.11C5518.28,5196.45 5524.59,5209.16 5553.95,5292.24C5577.94,5360.14 5587.55,5397.42 5588.19,5425.23C5588.7,5446.5 5588.31,5464.19 5587.31,5464.54C5586.31,5464.84 5562.13,5399.73 5533.57,5319.76C5494.82,5211.02 5485.02,5183.62 5490.74,5181.66Z" style="fill-rule:nonzero;"/>
                <path id="path382" d="M4537.23,5151.29C4531.23,5149.85 4522.1,5158.84 4503.3,5180.83C4448.12,5245.23 4331.94,5308.52 4271.47,5307.09C4231.45,5306.19 4160.78,5321.19 4132.22,5336.73C4109.07,5349.32 4098.7,5362.72 4078.53,5405.21C4049.18,5467.42 3964.77,5732.49 3955.63,5791.14C3952.14,5813.52 3943.89,5855.6 3937.27,5884.66C3922.28,5950.41 3918.64,6000.95 3927.8,6016.71C3931.67,6023.34 3935.91,6031.15 3937.27,6034.04C3941.85,6043.95 4021.22,6082.35 4043.3,6085.4C4078.26,6090.25 4531.08,5916.48 4576.28,5880.88C4594.13,5866.86 4607.93,5853.23 4607.01,5850.62C4606.08,5848.01 4476.89,5891.87 4319.88,5948.07C4047.88,6045.49 4033.23,6049.98 4009.94,6043.56C3987.11,6037.33 3984.69,6034.08 3972.39,5993.12L3959.25,5949.36L3985.68,5934.93C4000.22,5926.99 4020.58,5920.62 4030.99,5920.86C4044.99,5921.16 4051.05,5917.86 4054.12,5907.93C4057.61,5896.64 4063.01,5894.27 4088.31,5893.3C4104.8,5892.59 4121.86,5896.37 4126.17,5901.57C4136.65,5914.25 4149.57,5917.1 4167.86,5910.78C4179.5,5906.76 4183.28,5909.13 4184.26,5920.76C4186.18,5943.55 4220.54,5942.18 4260.76,5917.71C4278.16,5907.11 4307.8,5889.05 4326.55,5877.62C4367.84,5852.41 4450.95,5827.34 4713.36,5760.77C4911.35,5710.55 4942.07,5704.61 4946.02,5715.77C4950.3,5727.88 4974.65,5712.35 4995.05,5684.48C5036.08,5628.42 5070.13,5591.3 5077.09,5595.1C5085.69,5599.78 5130.38,5656.77 5134.4,5668.19C5138.59,5680.03 5096.67,5708.11 5048.28,5725.91C5025.26,5734.47 4958.26,5755.97 4899.52,5773.96C4823.96,5797.05 4795.54,5808.07 4802.38,5811.62C4817.2,5819.3 4896.5,5810.66 4972.45,5793.05C5068.07,5770.86 5095.14,5771.1 5106.47,5794.29C5116.84,5815.52 5133.99,5812.61 5164.25,5784.41L5164.19,5784.36C5175.31,5773.87 5183.76,5755.31 5185.71,5736.41C5190,5695.2 5167.42,5649.74 5100.83,5565.41C5042.68,5491.74 4997.54,5446.87 4901.79,5367.4C4864.97,5336.84 4833.93,5309.55 4832.84,5306.78C4831.75,5304.03 4810.73,5292.24 4786.13,5280.66C4761.53,5269.07 4708.19,5240.97 4667.58,5218.17C4620.41,5191.7 4586.22,5177.56 4572.87,5179.02C4557.32,5180.71 4550.46,5177.05 4546.07,5164.64C4543.3,5156.78 4540.83,5152.16 4537.23,5151.29L4537.23,5151.29ZM4546.75,5196.61C4547.43,5196.61 4548.04,5196.74 4548.51,5197.07C4552.23,5199.66 4565.98,5203.23 4579.13,5205.04C4592.28,5206.85 4630.69,5225.24 4664.48,5245.9C4698.26,5266.56 4733.82,5287.7 4743.46,5292.87C4769.34,5306.74 4803.61,5336.87 4800.62,5343.14C4796.1,5352.59 4774.41,5340.64 4707.41,5291.73L4707.46,5291.83C4671.7,5265.73 4633.74,5243.63 4623.1,5242.69C4594.71,5240.19 4552.12,5276.7 4554.77,5301.25C4556.29,5315.36 4550.81,5322.92 4530.77,5334.46C4496.9,5353.96 4347.15,5398.92 4318.48,5398.23C4302,5397.83 4289.89,5402.51 4272.19,5416.08C4242.27,5439.46 4210.51,5443.27 4203.91,5424.61C4200.9,5416.11 4196.02,5413.6 4191.03,5417.84C4186.56,5421.56 4173.42,5424.48 4161.7,5424.15C4144.95,5423.75 4141.18,5425.73 4143.91,5433.46C4145.82,5438.85 4136.9,5451.31 4124.1,5461.13C4111.3,5470.95 4096.14,5485.55 4090.32,5493.41C4068.16,5523.94 4066.93,5510.76 4087.74,5466.25C4100.15,5439.79 4121.45,5409.63 4137.29,5396.16C4162.45,5374.83 4171.51,5371.28 4231.79,5359.34C4361.32,5333.67 4470.89,5279.46 4523.27,5215.07C4532.16,5204.17 4541.94,5196.6 4546.75,5196.61L4546.75,5196.61ZM5459.91,5201C5460.59,5201.08 5461.32,5201.28 5462.13,5201.67C5470.17,5205.51 5497.14,5269.25 5544.69,5396.73L5588.91,5515.23L5580.27,5567.32C5575.49,5595.94 5569.97,5618.64 5568.02,5617.7C5566.17,5616.8 5551.15,5566.22 5535.07,5505.35L5535.01,5505.35C5518.85,5444.51 5502.96,5385.03 5499.74,5373.14C5496.42,5361.3 5484.32,5322.99 5472.63,5288.06C5454.52,5233.91 5449.66,5199.88 5459.91,5201L5459.91,5201ZM4395.04,5213.26C4385.09,5213.25 4361.23,5217.56 4320.29,5226.24C4256.55,5239.76 4229.2,5251.78 4272.5,5247.24C4284.51,5245.99 4298.32,5246.15 4303.17,5247.66C4317.88,5252.08 4362.16,5240.72 4386.4,5226.35L4386.35,5226.29C4401.01,5217.61 4404.98,5213.27 4395.04,5213.26L4395.04,5213.26ZM5427.43,5243.68C5433.64,5241.32 5537.34,5553.89 5551.57,5619.2C5561,5662.47 5556.35,5734.53 5544.48,5728.86C5541.86,5727.61 5538.26,5711.28 5536.51,5692.55C5531.38,5637.55 5477.55,5411.34 5451.43,5334.97C5438.18,5296.25 5427.23,5255.73 5427.11,5244.92C5427.11,5244.17 5427.23,5243.75 5427.43,5243.67L5427.43,5243.68ZM4066.17,5531.84C4070.74,5534.02 4037.77,5641.17 4031.87,5643.25C4029.99,5643.96 4029.77,5636.06 4031.3,5625.72C4035.35,5598.48 4061,5529.36 4066.17,5531.84L4066.17,5531.84ZM4271,5827.97C4279.28,5831.92 4218.87,5881.2 4189.53,5894.48C4183.06,5897.33 4179.82,5893.34 4178.88,5881.4L4178.82,5881.35C4178.08,5871.85 4176.81,5862.06 4175.98,5859.57C4174.12,5853.89 4263.21,5824.21 4271,5827.96L4271,5827.97Z" style="fill-rule:nonzero;"/>
                <path id="path380" d="M3947.92,5106.5C3946.58,5107.48 3944.63,5112.28 3942.18,5121.09C3939.17,5131.9 3939.05,5143.82 3941.92,5147.52C3944.76,5151.24 3948.04,5144.46 3949.11,5132.57C3950.76,5113.86 3950.17,5104.86 3947.92,5106.5L3947.92,5106.5Z" style="fill-rule:nonzero;"/>
                <path id="path378" d="M5338.2,5089.95C5339.2,5090.43 5340.58,5092.7 5342.18,5096.72C5345.18,5103.98 5344.9,5108.76 5341.77,5107.28C5338.62,5105.8 5336.24,5099.8 5336.44,5094.03L5336.44,5093.98C5336.57,5090.79 5337.2,5089.47 5338.2,5089.95L5338.2,5089.95Z" style="fill-rule:nonzero;"/>
                <path id="path376" d="M2776.08,5089.28C2774.74,5089.43 2773.34,5089.78 2771.84,5090.31C2759.26,5094.77 2759.43,5099.91 2773.91,5140.85C2782.77,5165.93 2796.88,5197.68 2805.26,5211.4L2820.51,5236.33L2798.32,5239.12C2766.55,5243.07 2741.6,5261.5 2747.06,5276.99C2752.51,5292.42 2762.09,5295.02 2797.76,5290.8C2814.05,5288.88 2829.06,5282.85 2835.67,5275.64C2843.34,5267.35 2849.71,5265.1 2856.98,5268.56C2874.26,5276.81 2885.93,5268.03 2879.89,5251.38L2879.84,5251.38C2876.66,5242.73 2865.58,5222.7 2855.17,5206.85C2844.76,5190.99 2824.91,5157.18 2811.05,5131.69C2792.28,5097.16 2785.49,5088.16 2776.08,5089.28L2776.08,5089.28Z" style="fill-rule:nonzero;"/>
                <path id="path374" d="M4031.41,5014.22C4027.49,5014.38 4024.22,5014.85 4021.84,5015.67C4000.82,5022.89 3990.32,5051.99 3998.25,5081.05C4001.72,5093.94 4004.81,5120.36 4005.03,5139.81C4005.37,5168.74 4004.6,5170.73 4000.63,5150.83C3991.76,5106.38 3985.43,5137.84 3987.91,5214.24C3989.24,5255.48 3991.48,5292.78 3992.87,5297.11C3994.26,5301.44 3992.72,5313.08 3989.41,5322.92C3983.7,5339.9 3983.18,5339.44 3979.58,5314.54C3977.49,5300.08 3974.95,5247.71 3973.94,5198.16C3971.42,5074.92 3969.82,5063.5 3955.89,5071.69C3949.74,5075.3 3945.08,5083.47 3945.54,5089.79C3946.29,5100.04 3946.84,5099.85 3950.15,5088.19C3952.19,5080.94 3955.14,5078.42 3956.66,5082.55C3960.34,5092.53 3964.15,5233.5 3961.22,5251.17C3959.93,5258.77 3960.7,5285.57 3962.87,5310.71C3967.27,5361.78 3965.07,5416.5 3959.2,5401.23C3954.9,5390.32 3950.93,5311.51 3950.2,5227.17C3949.74,5173.45 3942.09,5148.97 3938.46,5189.67C3937.43,5201.31 3933.36,5210.14 3929.41,5209.28C3925.44,5208.38 3925.89,5211.97 3930.23,5217.14C3940.75,5229.48 3943.87,5264.03 3934.73,5267.26C3929.98,5268.98 3928.41,5264.48 3930.08,5253.66C3933.82,5229.25 3926.58,5216.03 3920.3,5235.76C3915.91,5249.52 3917.1,5349.72 3923.3,5484.35C3925.72,5536.96 3924.37,5554.78 3918.03,5553.41C3909.46,5551.53 3904.19,5514.81 3912.08,5512.03C3915.47,5510.81 3915.99,5503.3 3913.16,5495.32C3910.36,5487.36 3909.08,5473.86 3910.37,5465.32C3912.99,5448.06 3899.34,5427.3 3891.64,5436.87C3888.87,5440.14 3888.47,5447.85 3890.56,5453.78C3892.67,5459.74 3893.59,5476.05 3892.68,5490.04C3891.76,5504.02 3891.41,5526.01 3891.85,5538.87C3892.34,5553.17 3888.22,5563.03 3881.3,5564.27C3873.87,5565.6 3870.68,5576.21 3871.94,5595.2C3873.49,5618.37 3872.48,5620.69 3866.92,5606.84C3863.12,5597.32 3858.64,5577.12 3856.94,5561.89C3855.22,5546.64 3849.91,5531.01 3845.09,5527.18C3834.81,5518.91 3837.05,5564.64 3849.49,5618.01C3857.84,5653.83 3859.08,5662.15 3860.97,5693.79C3861.6,5703.97 3865.03,5710.13 3869.4,5708.58C3873.45,5707.16 3875.58,5696.64 3874.16,5685.2L3874.32,5685.15C3872.91,5673.72 3871.62,5655.53 3871.42,5644.75C3871.09,5626.21 3871.53,5626.37 3879.8,5648.11C3891.61,5679.06 3899.32,5666.86 3892.94,5627.37C3887.83,5595.66 3887.85,5595.59 3900.39,5614.7C3907.31,5625.27 3912.88,5632.22 3912.7,5630.11C3912.65,5628.06 3912.49,5612.02 3912.6,5594.63C3912.75,5568.77 3913.98,5566.17 3919.47,5580.35C3927.28,5600.6 3942.03,5485.29 3940.58,5415.09C3940.08,5391.39 3941.67,5376.96 3944.1,5383.02C3946.47,5389.1 3948.65,5414.61 3948.86,5439.76C3949.06,5464.92 3950.7,5489.77 3952.53,5494.95C3958.8,5512.7 3967.9,5500.16 3967.17,5474.78C3966.49,5451.64 3967.05,5450.89 3973.58,5466.56L3980.72,5483.78L3984.39,5462.78C3986.41,5451.2 3986.45,5425.43 3984.44,5405.52C3981.69,5378.14 3984.04,5368.17 3994.12,5364.61C4001.45,5362.01 4006.19,5356.39 4004.72,5352.19C4003.22,5347.95 4003.14,5332.91 4004.62,5318.73C4006.07,5304.55 4007.37,5273.32 4007.46,5249.41C4007.54,5225.51 4011.16,5205.6 4015.53,5205.14C4019.89,5204.64 4022.34,5201.03 4020.96,5197.17C4019.55,5193.24 4026.17,5189.27 4035.65,5188.38C4049.13,5187.12 4053.99,5181.06 4058,5160.91C4062.19,5139.52 4065.75,5135.43 4078.69,5137.43C4087.3,5138.75 4098.49,5138.34 4103.52,5136.39C4116.6,5131.55 4136.84,5048.47 4127.62,5037.65C4118.09,5026.47 4058.82,5013.03 4031.41,5014.22L4031.41,5014.22ZM3934.68,5286.97L3937.68,5307.3C3941.41,5332.68 3940.73,5367.72 3936.49,5369.21C3934.76,5369.81 3932.87,5360.73 3932.3,5348.99C3931.74,5337.26 3932.05,5318.48 3932.97,5307.3L3934.68,5286.97ZM3892.53,5577.15C3894.01,5577.28 3895.26,5578.38 3895.94,5580.36C3897.39,5584.44 3895.39,5588.84 3891.54,5590.23C3887.64,5591.53 3884.03,5591.4 3883.42,5589.67C3882.88,5588.01 3884.78,5583.48 3887.82,5579.73C3889.31,5577.85 3891.04,5577.02 3892.53,5577.15L3892.53,5577.15Z" style="fill-rule:nonzero;"/>
                <path id="path372" d="M2886.41,4181.13C2884.26,4180.03 2881.43,4184.65 2877.1,4192.61C2852.49,4238.17 2881.72,4384.63 2913.21,4373.5C2920.95,4370.77 2920.55,4361.21 2911.66,4336.05L2911.71,4336C2905.14,4317.41 2897.7,4276.54 2895.21,4245.17C2891.65,4200.69 2890,4182.97 2886.41,4181.13L2886.41,4181.13Z" style="fill-rule:nonzero;"/>
                <path id="path370" d="M3203.08,4144.98C3168.01,4145.13 3158.35,4190.4 3198.47,4209.58C3221.33,4220.5 3225.02,4219.5 3240.11,4198.36C3255.64,4176.61 3247.85,4157.45 3219.58,4147.87C3213.6,4145.85 3208.09,4144.95 3203.08,4144.98Z" style="fill-rule:nonzero;"/>
                <path id="path368" d="M3215.08,4105.2C3230.4,4105.71 3246.51,4110.07 3262.61,4118.49C3286.55,4131.06 3292.06,4137.92 3297.16,4161.53C3304.13,4193.74 3295.4,4220.33 3269.96,4244.29C3246.64,4266.24 3232.2,4271.15 3203.18,4267.2L3203.13,4267.15C3168.17,4262.32 3147.74,4244.64 3134.8,4208.03C3126.16,4183.6 3125.99,4170.77 3133.97,4155.37C3151.5,4121.57 3181.36,4104.07 3215.08,4105.2L3215.08,4105.2Z" style="fill-rule:nonzero;"/>
                <path id="path366" d="M2260.74,3888.83C2246.66,3888.27 2249.73,3905.25 2276.16,3937.76C2308.34,3977.38 2323.08,3982.2 2339.42,3958.35L2339.42,3958.3C2348.66,3944.76 2348.05,3943.45 2321.88,3922.92C2293.04,3900.29 2271.7,3889.26 2260.74,3888.83L2260.74,3888.83Z" style="fill-rule:nonzero;"/>
                <path id="path364" d="M4916.07,3847.5C4914.76,3847.69 4911.91,3849.65 4907.33,3852.83C4900.37,3857.67 4872.25,3873.69 4844.94,3888.52C4775.5,3926.15 4767.64,3938.84 4827.36,3916.92C4854.15,3907.02 4881.51,3895.4 4888.29,3890.9C4895.03,3886.49 4904.82,3874.06 4910.17,3863.43C4916.09,3851.72 4918.25,3847.18 4916.07,3847.5Z" style="fill-rule:nonzero;"/>
                <path id="path362" d="M3229.3,3737.74C3216.83,3737.1 3197.49,3744.01 3148.09,3764.38C3026.61,3814.51 2946.32,3879.39 2899.55,3965.38C2869.45,4020.65 2858,4094.56 2872.97,4136.91L2883.47,4166.65L2895.62,4134.99C2910.72,4095.77 2913.42,4100.46 2904.78,4150.82C2901.11,4172.21 2901.51,4188.44 2905.66,4186.98C2909.78,4185.5 2928.25,4150.92 2946.62,4110.06C2982.93,4029.38 3007.08,4000.84 3070.19,3963.94C3118.72,3935.56 3151.21,3928.27 3219.27,3930.57C3294.67,3933.13 3345.76,3960.14 3416.81,4034.95C3488.02,4109.97 3510.94,4151.68 3496,4179.27C3487.65,4194.69 3482.6,4197.67 3469.82,4194.84C3456.17,4191.81 3452.9,4195.92 3445.67,4224.84C3419.67,4328.85 3385.94,4372.51 3305.34,4406.55C3221.05,4442.15 3091.75,4451.78 3035.95,4426.62L3009.47,4414.67L3024.31,4432.15C3047.06,4459.06 3079.79,4479.64 3105.52,4483.21C3131,4486.74 3283.66,4463.78 3319.87,4450.98C3332.3,4446.6 3360.51,4429.64 3382.51,4413.28C3426.57,4380.49 3459.12,4326.62 3473.76,4262.19C3480.74,4231.39 3484.75,4225.86 3501.95,4223.39C3540.46,4217.85 3550.9,4179.57 3530.03,4120.51C3517.4,4084.75 3517.53,4081.41 3531.27,4083.53C3556.8,4087.44 3625.09,4121.48 3628.88,4132.2C3635.39,4150.62 3483.24,4384.57 3432.07,4434.84C3405.96,4460.47 3372.73,4503.41 3357.11,4531.52C3329.51,4581.26 3303.53,4614.61 3288.22,4620.02C3283.86,4621.43 3281.32,4618.9 3282.32,4614.18C3286.62,4594.44 3270.92,4612.37 3256.72,4643.45C3248.3,4661.93 3223.67,4705.1 3202.04,4739.35C3171.37,4787.93 3165.54,4802.09 3175.51,4803.8C3199.3,4807.91 3195.45,4824.22 3166.87,4840.32L3138.94,4856.1L3177.68,4854.18C3227.24,4851.75 3257.97,4842.47 3257.85,4829.97C3257.81,4823.71 3250.95,4822.57 3239.18,4826.72C3228.63,4830.46 3221.47,4829.59 3222.53,4824.7C3223.54,4820 3229.08,4814.45 3234.84,4812.34C3259.51,4803.6 3310.87,4741.33 3356.6,4664.66C3383.6,4619.39 3413.43,4571.34 3422.91,4557.9C3470.17,4490.87 3487.49,4470.82 3498.01,4471.1C3510.62,4471.4 3547.01,4415.91 3564.28,4369.93C3578.06,4333.25 3587.29,4337.21 3585.59,4379.08C3584.62,4402.72 3561.29,4456.97 3499.88,4578.64C3399.64,4777.21 3367.45,4838.72 3314.08,4933.58C3292.05,4972.75 3276.74,5006.97 3280.1,5009.67C3286.87,5015.1 3337.62,5012.95 3353.8,5006.51C3359.52,5004.28 3370.58,4996.74 3378.43,4989.86L3378.43,4989.8C3404.03,4967.6 3466.93,4852.66 3523.1,4726.37C3553.32,4658.42 3579.09,4598.31 3580.36,4592.81C3586.78,4564.98 3575.72,4583.41 3530.81,4675.52C3418.93,4904.81 3360.5,5003.01 3351.32,4977.03C3350.1,4973.51 3369.6,4932 3394.72,4884.75C3458.84,4764.11 3521.44,4637.08 3511.31,4648.21C3499.48,4661.19 3403.2,4830.82 3359.39,4915.89C3337.26,4958.83 3317.2,4988.32 3307.87,4991.61C3299.48,4994.59 3293.51,4995.43 3294.68,4993.63C3331.62,4932.4 3390.02,4825.27 3445.31,4717.42C3565.95,4482.07 3562.63,4487.35 3586.93,4491.07C3606.93,4494.13 3608.89,4492.1 3628.05,4446.69C3653.78,4385.76 3669.7,4368.22 3683.14,4386.01C3717.23,4431.15 3741.25,4282.15 3714.59,4190.96C3704.02,4154.83 3707.51,4146.87 3726.28,4164.01C3732.63,4169.78 3753.19,4183.65 3771.95,4194.78C3803.66,4213.59 3806.41,4217.26 3810.9,4247.23C3818.15,4295.65 3824.96,4311.78 3836.51,4307.7C3849.28,4303.19 3846.81,4240.69 3831.49,4180.15C3811.44,4100.94 3753.24,3931.78 3739,3911.38C3719.08,3882.83 3664.88,3847.46 3649.41,3852.93C3625.42,3861.4 3624.57,3880.7 3647.09,3905.59C3658.23,3917.9 3666.8,3929.08 3666.12,3930.47C3665.48,3931.76 3634.03,3929.87 3596.29,3926.02C3480.77,3914.31 3431.32,3935.38 3485.29,3973.3C3506.86,3988.45 3546.34,4032.8 3551.65,4047.83C3557.8,4065.21 3492.95,4026.25 3454.31,3989.33C3375.06,3913.62 3238.42,3864.04 3172.82,3887.22C3149.52,3895.47 3148.66,3895.09 3155.39,3878.95C3170.93,3841.77 3152.74,3838.85 3112.92,3872.12C3100.3,3882.7 3074.4,3902.7 3055.61,3916.86C3010.22,3950.41 2983.69,3976.25 2962.66,4007.07C2935.87,4046.49 2933.78,4032.78 2959.5,3986.54C3007.71,3900.03 3069.57,3850.32 3159.52,3825.83C3218.08,3809.88 3223.85,3806.88 3241.15,3783.31C3262.47,3754.28 3262.39,3751.24 3240.32,3740.69C3236.83,3739.02 3233.46,3737.95 3229.3,3737.74L3229.3,3737.74ZM2934.26,4042.51C2934.75,4042.74 2933.66,4046.32 2931.26,4053.42C2926.22,4068.35 2921.76,4074.13 2919.72,4068.37C2919.11,4066.77 2922.8,4059.38 2927.69,4051.71C2931.71,4045.38 2933.77,4042.27 2934.26,4042.51ZM3208.25,4072.09C3173.02,4073.04 3138.79,4086.55 3118.71,4111.2C3068.05,4173.4 3112.71,4287.79 3195.42,4307.65C3238.17,4317.91 3282.68,4305.89 3286.51,4283.03L3286.56,4283.03C3287.91,4274.95 3298.87,4257.75 3310.93,4244.81C3340.27,4213.31 3344.33,4177.65 3323.08,4137.84C3314.07,4120.98 3297.41,4100.95 3286.05,4093.3C3263.63,4078.19 3235.65,4071.36 3208.25,4072.09L3208.25,4072.09ZM5955.49,4080.42C5965.39,4080.08 5968.21,4094.87 5970.13,4145.13C5972.3,4202.01 5952.28,4272.78 5935.73,4266.79C5929.68,4264.6 5920.71,4257.45 5915.77,4250.91L5915.71,4250.86C5903.44,4234.6 5885.36,4242.67 5861.5,4275.06C5850.49,4290.02 5839.99,4301.53 5838.18,4300.67C5836.33,4299.77 5834.29,4286.03 5833.62,4270.05C5832.62,4245.83 5829.97,4239.79 5817.59,4233.89C5805.57,4228.14 5800.39,4229.45 5790.23,4240.56C5783.27,4248.03 5776.08,4253.49 5774.24,4252.67C5772.39,4251.77 5769.55,4222.04 5768.04,4186.66C5765.9,4136.59 5768.09,4121.94 5777.81,4120.46C5786.94,4118.97 5794.01,4127.17 5804.19,4151.03C5818.03,4183.41 5836.48,4191.19 5837.19,4164.94C5837.75,4144.05 5852.41,4146.72 5874.02,4171.66C5885.55,4184.96 5898.94,4194.44 5903.82,4192.72C5912.99,4189.48 5946.22,4102.04 5942.4,4091.23C5941.22,4087.87 5944.98,4083.48 5950.78,4081.45C5952.5,4080.85 5954.07,4080.47 5955.49,4080.42L5955.49,4080.42ZM3222.27,4770.13C3223.03,4771.09 3220.53,4774.96 3215.54,4782.7C3203.1,4801.98 3193.89,4806.44 3193.61,4793.3C3193.45,4787.94 3200.69,4779.76 3209.59,4775.2C3217.52,4771.13 3221.5,4769.17 3222.27,4770.13ZM3277.35,4824.75C3275.55,4825.1 3273.41,4826.19 3271.1,4828.16C3266.04,4832.37 3263,4838.73 3264.22,4842.18C3266.81,4849.52 3276.82,4847.08 3281.13,4837.99L3281.13,4837.94C3285.22,4829.33 3282.76,4823.71 3277.35,4824.75L3277.35,4824.75Z" style="fill-rule:nonzero;"/>
                <path id="path360" d="M2344.43,3682.81C2346.17,3682.21 2355.59,3697.49 2365.43,3716.79C2375.28,3736.1 2392,3760.77 2402.62,3771.62C2417.81,3787.12 2421.19,3794.77 2418.4,3807.36C2416.44,3816.17 2416.91,3829.24 2419.44,3836.38C2426.5,3856.37 2419.06,3863.84 2404.95,3850.97C2397.96,3844.59 2383.52,3836.97 2372.88,3834L2372.99,3833.95C2348.97,3827.26 2344.37,3815.8 2358.51,3798C2364.5,3790.42 2367.4,3778.41 2364.87,3771.26C2362.33,3764.09 2351.12,3752.43 2339.94,3745.34C2328.75,3738.27 2318.51,3729.41 2317.18,3725.64C2315.02,3719.53 2336.63,3685.57 2344.44,3682.81L2344.43,3682.81Z" style="fill-rule:nonzero;"/>
                <path id="path358" d="M5904.13,3671.69C5907.69,3670.34 5917.94,3683.69 5926.78,3701.17C5935.62,3718.67 5946.12,3738.37 5950.11,3744.98C5961.49,3763.88 5947.53,3753.79 5927.3,3728.48C5905.66,3701.44 5894.86,3674.96 5904.13,3671.69Z" style="fill-rule:nonzero;"/>
                <path id="path356" d="M5502.07,3644.38C5505.52,3643.24 5514.49,3651.6 5523.69,3664.96C5534.2,3680.24 5552.94,3702.35 5565.32,3714.1C5593.88,3741.2 5594.01,3741.79 5572.98,3749.22C5563.33,3752.64 5556.2,3757.84 5557.1,3760.71C5564.15,3782.51 5586.97,3909.97 5584,3911.02C5583.34,3911.42 5563.49,3853.42 5539.93,3782.53L5540.03,3782.59C5516.5,3711.69 5498.91,3649.98 5500.93,3645.46C5501.18,3644.9 5501.57,3644.54 5502.07,3644.38L5502.07,3644.38Z" style="fill-rule:nonzero;"/>
                <path id="path354" d="M4635.2,3611.43C4629.89,3611.64 4625.06,3613.5 4620.3,3617.07C4595.66,3635.43 4597.74,3659.98 4625.58,3679.86C4644.96,3693.7 4648.55,3693 4663.18,3672.51C4679.34,3649.87 4675.05,3626.41 4652.78,3615.77C4646.27,3612.66 4640.51,3611.22 4635.2,3611.43Z" style="fill-rule:nonzero;"/>
                <path id="path352" d="M4688.99,3582.62C4714.6,3583.74 4723.01,3599 4721.89,3637.7C4721.29,3658.55 4722.24,3684.94 4724.01,3696.36C4726.43,3712.03 4724.37,3716.09 4715.73,3712.91C4707.82,3709.99 4699.23,3712.99 4687.8,3722.69C4669.11,3738.55 4627.29,3744.27 4595.68,3735.47C4566.54,3727.31 4541.55,3687.15 4543.54,3651.72C4546.35,3601.72 4563.01,3593.14 4676.94,3582.98C4681.32,3582.59 4685.34,3582.46 4688.99,3582.62L4688.99,3582.62Z" style="fill-rule:nonzero;"/>
                <path id="path350" d="M3841.37,3460.96C3835.3,3460.26 3828.96,3462.7 3820.21,3467.32C3795.64,3480.31 3796.9,3484.61 3836.25,3520.03C3860.05,3541.44 3870.26,3546.19 3879.34,3540.05C3886.19,3535.54 3894.35,3535.58 3898.58,3540.62C3902.63,3545.36 3909.08,3548.13 3912.96,3546.77C3916.9,3545.44 3915.82,3539.64 3910.63,3533.79C3905.5,3527.99 3891.44,3510.79 3879.39,3495.51C3860.86,3472.06 3851.48,3462.11 3841.37,3460.96L3841.37,3460.96Z" style="fill-rule:nonzero;"/>
                <path id="path348" d="M4599.82,3256.38C4565.22,3260.47 4525.43,3283.57 4453.33,3341.37C4392.83,3389.7 4393.06,3387.17 4451.06,3388.08C4464.66,3388.29 4462.78,3392.59 4438.12,3418.49C4422.29,3435.09 4405.68,3457.53 4401.19,3468.25C4393.13,3487.57 4393.24,3487.68 4409.93,3481.75C4419.22,3478.46 4434.48,3467.39 4443.92,3457.23C4462.23,3437.52 4567.3,3384.51 4600.18,3378.4C4611.03,3376.32 4634.05,3372.14 4651.28,3368.94C4688.76,3361.97 4715.8,3375.84 4774.39,3432.04L4814.74,3470.68L4788.46,3490.03C4766.16,3506.51 4764.58,3509.42 4778.22,3509.99C4787.03,3510.39 4802.78,3507.88 4813.24,3504.51C4837.17,3496.71 4847.51,3509.77 4868.95,3574.65C4888.27,3633.02 4894.96,3687.58 4885.7,3711.15C4875.66,3736.69 4831.07,3780.04 4795.7,3798.67C4739.54,3828.24 4659.47,3852.91 4620.56,3852.62C4568.58,3852.22 4512.83,3847.27 4496.83,3841.5C4489.38,3838.82 4460.03,3840.6 4431.61,3845.54C4403.18,3850.44 4376.8,3853.76 4373,3852.93C4369.2,3852.13 4370.55,3835.03 4375.95,3814.91C4381.37,3794.82 4383.25,3759.61 4380.14,3736.71C4377.03,3713.8 4379.02,3673.04 4384.54,3646.14C4390.07,3619.23 4393.6,3587.94 4392.4,3576.56C4390.45,3558.05 4388.81,3559.88 4376.83,3594C4369.49,3614.98 4361.55,3646.18 4359.19,3663.36C4356.83,3680.52 4349.17,3719.73 4342.17,3750.41C4326.88,3817.48 4326.28,3849.05 4339.85,3872.28C4354.05,3896.58 4340.98,3898.53 4295.83,3878.85L4257.81,3862.3L4278.71,3811.91C4310.33,3735.53 4320.61,3698.43 4336.43,3604.19C4356.63,3483.89 4349.69,3468.8 4310.26,3547.29C4297.44,3572.8 4274.82,3611 4259.98,3632.17C4231.36,3673.05 4224.41,3673.47 4210.9,3635.22C4199.31,3602.43 4173.18,3595.5 4118.25,3610.6L4067.77,3624.46L4029.29,3692.53C3969.57,3798.23 3940.31,3845.03 3932.15,3847.92C3928.03,3849.38 3911.96,3842.67 3896.4,3832.97C3865.96,3813.98 3851.8,3814.95 3836.61,3837.16C3827.23,3850.88 3829.92,3857.98 3932.72,4089.27C3990.89,4220.15 4045.56,4340.73 4054.22,4357.2L4069.94,4387.15L4058.67,4347.74C4052.53,4326.04 4029.37,4268.52 4007.51,4219.82C3985.59,4171.14 3950.6,4092.97 3929.77,4046.08C3908.93,3999.19 3885.51,3948.86 3877.73,3934.25C3868.34,3916.61 3866.74,3909.2 3873.08,3912.21C3886.21,3918.54 3963.39,4078.34 4011.44,4198.72C4057,4312.87 4080.32,4362.47 4094.15,4374.64C4100.61,4380.32 4100.58,4373.95 4093.99,4354.98C4083.2,4323.93 3989.29,4094.54 3954.28,4013.75C3932.21,3962.8 3932.16,3962.55 3951.59,3982.61C3970.59,4002.25 3993.88,4054.24 4096.79,4306.67C4152.83,4444.15 4195.46,4508.14 4299.86,4611.49C4321.58,4632.99 4349.2,4656.85 4361.21,4664.45C4382.74,4678.11 4382.91,4678.48 4373.36,4693.89C4367.97,4702.48 4354.43,4745.5 4343.26,4789.47C4332.09,4833.45 4319.01,4873.94 4314.19,4879.42C4309.33,4884.88 4289.42,4893.39 4269.86,4898.25C4237.7,4906.25 4234.8,4908.5 4239.39,4921.53C4243.36,4932.77 4268.41,4952.26 4275.6,4949.72C4276.27,4949.32 4286.4,4942.41 4298.15,4934.2C4319.07,4919.43 4319.34,4919.46 4311.76,4937.31C4307.56,4947.35 4306.11,4956.52 4308.55,4957.69C4318.69,4962.53 4344.19,4913.31 4347.86,4881.86C4353.28,4835.33 4388.66,4689.09 4395.09,4686.7C4398.01,4685.69 4419.63,4690.39 4443.19,4697.25C4492.55,4711.62 4505.55,4708.77 4530.45,4678.21C4553.7,4649.71 4553.68,4649.69 4563.3,4676.5C4570.95,4697.81 4560.7,4817.52 4550.94,4820.97C4548.54,4821.87 4536.43,4817.31 4524.09,4810.94L4501.69,4799.35L4513.59,4779.95C4523.81,4763.29 4523.52,4758.14 4511.52,4743.23C4503.84,4733.69 4487.6,4724.14 4475.42,4722.02C4455.4,4718.53 4450.8,4720.56 4427.57,4742.66C4386.94,4781.32 4351.77,4853.85 4353.4,4895.72C4354.43,4921.85 4376.83,4917.21 4396.8,4886.72C4416.24,4857.05 4418.19,4857.62 4453.95,4904.51C4463.71,4917.31 4480.13,4930.19 4490.47,4933.06C4514.36,4939.7 4552.07,4926.6 4558.39,4909.48L4558.12,4909.32C4560.79,4902.08 4562.04,4891.49 4560.92,4885.78C4559.76,4880.07 4569.35,4854.19 4582.13,4828.32C4619.21,4753.25 4663.08,4602.36 4654.7,4578.64C4650.77,4567.52 4633.03,4541.21 4615.33,4520.14C4502.58,4385.9 4452.78,4330.3 4404.5,4284.89C4341.88,4225.99 4341.88,4225.82 4401.03,4183.35C4451.54,4147.1 4470.47,4143.13 4496.11,4163.44C4508.16,4172.98 4553.44,4190.53 4596.71,4202.44C4639.98,4214.34 4695.28,4229.59 4719.61,4236.32C4749.36,4244.55 4772.89,4257.46 4791.51,4275.84C4815.83,4299.83 4920.98,4372.99 4981.65,4408.1C5017.85,4429.04 4946.53,4368.88 4879.44,4321.87C4846.5,4298.79 4810.76,4271.56 4799.99,4261.35L4780.39,4242.78L4802.94,4239.58C4820.9,4236.99 4833.47,4226.61 4864.81,4188.63C4886.37,4162.34 4904.13,4136.52 4904.27,4131.21C4904.36,4125.92 4889.31,4109.31 4870.7,4094.28C4852.09,4079.24 4835.8,4063.83 4834.44,4059.99C4833.09,4056.15 4851.13,4044.09 4874.58,4033.3C4898,4022.47 4936.44,3998.06 4959.98,3979.04C5029.21,3923.19 5038.9,3918.82 5065.35,3932.48C5094.55,3947.57 5104.04,3943.85 5138.33,3903.78C5196.7,3835.58 5196.23,3799.34 5135.85,3695.06C5095.15,3624.8 5084.62,3614.21 5062.81,3621.92C5050.31,3626.33 5038.82,3621.43 5017.19,3602.42C4972.36,3562.99 4969.21,3556.33 4981.65,3527.52C4988.7,3511.24 4989.65,3498.2 4984.24,3492.35C4959.7,3465.94 4922.91,3415.7 4924.96,3411.4C4926.32,3408.79 4941.64,3413.03 4959.15,3421.07C4996.74,3438.32 5017.36,3430.69 5010.83,3401.99C5003.23,3368.72 4958.06,3337.47 4871.69,3305.72C4813.84,3284.46 4635.75,3252.12 4599.82,3256.38L4599.82,3256.38ZM4659.25,3299.01C4665.92,3299.37 4670.94,3300.16 4672.6,3301.49C4675.91,3304.16 4661.09,3306.84 4639.7,3307.49C4618.3,3308.09 4601.56,3307.1 4602.51,3305.06C4604.58,3300.72 4639.26,3297.91 4659.25,3299L4659.25,3299.01ZM3352.51,3320.21C3349.91,3320.11 3347.64,3320.4 3345.79,3321.04C3335.87,3324.53 3380.04,3407.7 3404.7,3431.99C3418.33,3445.41 3433.58,3468.43 3438.58,3483.15L3447.63,3509.94L3417.22,3481.23C3356.26,3423.63 3321.02,3417.56 3338.75,3467.73C3363.46,3537.65 3324.72,3564.05 3246.22,3530.79C3196.54,3509.74 3060.26,3472.33 2912.33,3439.08C2868.71,3429.27 2832.17,3418.66 2831.07,3415.54C2829.97,3412.42 2842.35,3402.78 2858.59,3394.08C2874.85,3385.43 2892.31,3371.92 2897.38,3364.13C2905.94,3350.72 2904.56,3349.13 2874.98,3337.54C2857.64,3330.76 2827.41,3325.59 2807.79,3326.06C2753.33,3327.35 2666.55,3345.87 2633.94,3363.2C2606.11,3377.98 2604.39,3381.18 2598.15,3429.77C2590.91,3486.08 2592.78,3643.45 2602.08,3759.36C2608.41,3838.38 2614.03,3863.71 2624.32,3860.07C2635.59,3856.08 2653.61,3797.61 2665.13,3727.65C2681.89,3625.93 2685.48,3617.49 2716.39,3606.56C2737.67,3599.05 2758.19,3601.61 2821.08,3619.7C2864.11,3632.08 2931.61,3648.11 2971.04,3655.29C3010.47,3662.47 3086.51,3681.73 3140.02,3698.07C3288.36,3743.33 3302.71,3744.89 3378.22,3724.45L3443.03,3706.91L3468.12,3666.1C3508.57,3600.25 3518.49,3580.42 3518.29,3565.7C3517.97,3541.83 3444.66,3384.11 3421.72,3357.97C3405.03,3338.92 3370.75,3320.91 3352.51,3320.21L3352.51,3320.21ZM2154.24,3335.11C2155,3335.45 2155.74,3336.37 2156.36,3338.01C2160.23,3348.33 2145.41,3422.64 2139.96,3420.04C2138.12,3419.14 2137.59,3406.28 2138.62,3391.34C2140.74,3360.36 2148.9,3332.74 2154.24,3335.11ZM4831.6,3423.35L4852.08,3435.87C4874.09,3449.26 4951.97,3521.74 4955.69,3532.29C4956.93,3535.78 4952.2,3542.55 4945.14,3547.34C4933.38,3555.48 4933.98,3559.71 4954.24,3603.62C4975.32,3649.29 4975.81,3652.94 4965.98,3696.83C4957.66,3734.01 4958.2,3748.8 4968.98,3776.22C4985.34,3817.6 4983.99,3846.71 4963.14,3907.35C4944.93,3960.31 4914.91,3988.28 4850.79,4011.89C4820.24,4023.11 4801.67,4023.71 4741.55,4015.35L4741.55,4015.3C4637.41,4000.82 4620.27,3996.52 4576.28,3973.92C4532.26,3951.29 4525.03,3940.11 4535.52,3910.5C4542.6,3890.51 4543.39,3890.19 4581.35,3889.4C4680.31,3887.36 4818.03,3835.73 4867.76,3782.07C4914.64,3731.47 4929.83,3694.72 4927.96,3636.1C4926.09,3576.96 4909.78,3535.71 4860.26,3464.53L4831.6,3423.35ZM4823.53,4356.53C4819.48,4358.07 4855.02,4398.07 4930.81,4477.36C4987.26,4536.42 5123.28,4703.38 5167.92,4768.42C5193.09,4805.1 5217.76,4837.22 5222.75,4839.8C5228.51,4842.81 5228.62,4839.91 5223.06,4831.84L5223.01,4831.84C5218.18,4824.87 5187.51,4778.77 5154.88,4729.42C5057.03,4581.41 4971,4479.21 4873.44,4395.12C4842.63,4368.55 4825.96,4355.61 4823.53,4356.53L4823.53,4356.53ZM3950.77,4374.38C3949.88,4374.46 3949.16,4374.72 3948.65,4375.15C3944.56,4378.56 3937.54,4404.13 3932.97,4431.84C3924.71,4482.12 3882.85,4591.09 3870.08,4595.61C3866.3,4596.81 3863.01,4591.89 3862.58,4584.43C3862.16,4576.99 3857.67,4552.87 3852.59,4530.8C3847.52,4508.73 3840.02,4466.96 3835.99,4438C3827.28,4375.35 3828.47,4379.4 3821.76,4387.72C3809.33,4403.16 3821.83,4495.31 3846.02,4566.54L3862.16,4614.02L3837.59,4650.59C3824.08,4670.67 3805.52,4691.77 3796.37,4697.45C3778.25,4708.74 3773.1,4732.54 3772.73,4805.87C3772.36,4881.19 3787.67,4912.33 3856.83,4977.03C3919.53,5035.68 3953.17,5058.18 3961.94,5047.27C3970.43,5036.7 3947.17,5004.81 3904.89,4969.12C3883.16,4950.78 3862.03,4926.31 3857.97,4914.81C3851.25,4895.79 3852.19,4894.12 3867.95,4896.55C3881.63,4898.65 3887.1,4895.98 3893.66,4883.82C3904.27,4864.21 3923.7,4857.46 3980.82,4853.66C4022.34,4850.92 4028.8,4852.85 4049.77,4874.67C4091.48,4918.03 4086.72,4924.85 4020.49,4917.03C3973.64,4911.49 3935.37,4921.58 3934.89,4939.58C3934.51,4954.26 3983.22,4982.63 4024.11,4991.51C4044.82,4996 4059.7,4994.52 4072.99,4986.6C4089.63,4976.7 4095.57,4977.77 4118.93,4994.98C4145.15,5014.26 4151.23,5007.35 4127.26,4985.46C4101.27,4961.76 4128.82,4971.99 4165.17,4999.53C4202.34,5027.72 4204.83,5031.55 4239.24,5113.38C4261.25,5165.69 4278.71,5198.89 4284.97,5200.33C4301.39,5204.13 4311.78,5197.85 4314.4,5182.69L4314.6,5182.9C4316.29,5173.13 4312.13,5164.94 4301.21,5156.63C4291.91,5149.55 4275.45,5120.89 4261.43,5087.36C4240.99,5038.52 4230.28,5022.91 4188.03,4980.55C4160.83,4953.27 4120.56,4909.24 4098.6,4882.69C4076.64,4856.14 4050.96,4828.5 4041.49,4821.29C4016.93,4802.57 4024,4796.69 4071.7,4796.15C4121.49,4795.55 4133.5,4785.82 4140.24,4740.81C4145.14,4708.31 4144.62,4708.62 4212.65,4699.73C4231.11,4697.33 4238.99,4691.33 4251.45,4669.99C4265.4,4646.25 4265.69,4639.34 4254.09,4607.2C4233.94,4551.41 4177.76,4492.16 4096.79,4441.47C4058.59,4417.55 4025.06,4398.8 4022.3,4399.78C4019.49,4400.68 4017.34,4405.89 4017.44,4411.21C4017.56,4416.49 4003.8,4409.09 3986.87,4394.81C3971.97,4382.22 3957.01,4373.92 3950.77,4374.38L3950.77,4374.38ZM4566.09,4386.17C4565.63,4386.33 4565.41,4386.75 4565.42,4387.36C4565.56,4395.52 4597.1,4431.61 4677.36,4515.38C4694.37,4533.14 4719.01,4559.92 4732.13,4574.92C4745.27,4589.92 4781,4630.65 4811.53,4665.44C4842.06,4700.22 4890.67,4757.58 4919.59,4792.94C4948.52,4828.28 5000.55,4891.58 5035.24,4933.58C5069.95,4975.57 5122.8,5043.99 5152.66,5085.6C5223.28,5184.01 5240.05,5202.51 5217.57,5157.19C5162.79,5046.68 4927.65,4743.94 4769.94,4580.86C4752.8,4563.14 4738.33,4547.33 4737.77,4545.74C4735.43,4539.12 4633.07,4437.1 4600.54,4408.98C4583.57,4394.3 4569.33,4384.98 4566.09,4386.17L4566.09,4386.17ZM3493.67,4481.81C3490.84,4481.45 3475.12,4507.33 3437.19,4571.14C3417.6,4604.12 3394.16,4642.54 3385.1,4656.59C3325.45,4749.13 3304.69,4803.89 3360.22,4722.23C3392.58,4674.64 3431.48,4611.73 3450.38,4576.36C3458.21,4561.65 3466.75,4548.9 3469.31,4547.97C3471.82,4546.97 3479.77,4529.16 3486.84,4508.24C3492.44,4491.7 3495.37,4482.03 3493.67,4481.81ZM3517,4499.5C3513.01,4500.87 3505.03,4512.94 3499.2,4526.24C3484.27,4560.34 3328.69,4809.95 3293.08,4856.92C3263.39,4896.11 3208.56,5003.51 3220.97,4998.19C3224.67,4996.71 3233.19,4990.16 3240.27,4984.12C3247.26,4977.96 3253.07,4967.44 3253.25,4960.79C3253.54,4950.09 3338.15,4809.02 3435.07,4657.63C3476.59,4592.76 3526.71,4496.07 3517,4499.5ZM3581.55,4622.66L3575.29,4644.59C3570.14,4662.7 3534.98,4745.15 3495.01,4832.87C3490.52,4842.7 3488.49,4851.55 3490.51,4852.53C3492.61,4853.53 3504.53,4833.85 3517.2,4808.92C3549.22,4745.9 3575.69,4676.49 3578.86,4647.28L3581.55,4622.66Z" style="fill-rule:nonzero;"/>
                <path id="path346" d="M3018.99,3208.9C2947.67,3210.73 2798.88,3230.19 2758.7,3244.38C2742.78,3250.01 2741.56,3252.39 2751.46,3258.3C2785.93,3278.89 3040.33,3259.46 3088.04,3232.59C3112.02,3219.07 3102.41,3213.97 3044.28,3209.26C3037.8,3208.74 3029.17,3208.64 3018.99,3208.9L3018.99,3208.9Z" style="fill-rule:nonzero;"/>
                <path id="path344" d="M5126.59,2282.29C5135.39,2283.57 5156.6,2294.9 5177.64,2309.91C5222.52,2341.91 5242.81,2365.2 5202.11,2338C5189.64,2329.68 5164.54,2314.56 5146.35,2304.43C5124.67,2292.35 5116.82,2284.78 5123.59,2282.39C5124.3,2282.16 5125.33,2282.11 5126.59,2282.29L5126.59,2282.29Z" style="fill-rule:nonzero;"/>
                <path id="path342" d="M2765.38,2280.17L2445.66,2392.72C2269.83,2454.64 2123.94,2509 2121.45,2513.61C2117.53,2520.83 2050.44,2563.43 2033.67,2569.37C2030.42,2570.46 2025.59,2565.1 2022.86,2557.37C2019.63,2548.23 2013.22,2545.03 2004.55,2548.11C1994.62,2551.61 1993.51,2556.22 1999.79,2565.54C2004.54,2572.54 2007.29,2578.81 2006,2579.45C1940.06,2610.69 1934.62,2615.67 1940.05,2639.4C1944,2656.76 1940.97,2661.84 1919.82,2673.39C1906.15,2680.87 1893.61,2689.74 1891.99,2693.2C1887.51,2702.62 1933.12,2684.47 1965.08,2664.18C1980.6,2654.29 1995.32,2647.18 1997.77,2648.35C2000.12,2649.46 1997.11,2662.28 1990.89,2676.64C1978,2706.46 1977.86,2704.78 1997.82,2755.68C2007.15,2779.63 2027.42,2810.19 2052.08,2837.87C2073.71,2862.12 2091.29,2886.6 2091.14,2892.24C2090.95,2897.88 2071.55,2918.89 2047.94,2938.95C2024.36,2959.02 2004.27,2978.89 2003.36,2983.17C2000.89,2994.43 2014.04,3062.19 2040.96,3177.19C2067.29,3289.7 2083.59,3340.92 2092.12,3337.9C2095.3,3336.85 2101.55,3323.66 2106.14,3308.68C2110.72,3293.7 2116.29,3282.3 2118.55,3283.39C2120.9,3284.49 2120.99,3311.25 2119.01,3342.92C2117.02,3374.6 2119,3414.36 2123.36,3431.32C2127.82,3448.24 2131.51,3470.07 2131.79,3479.73C2132.51,3504.99 2142.96,3497.69 2160.34,3459.77C2168.67,3441.64 2178,3425.92 2181.09,3424.8C2194.64,3420.01 2190.89,3442.49 2170.48,3488.48C2157.3,3518.18 2150.76,3544.47 2154.14,3554.22C2161.87,3576.6 2157.88,3587.49 2136.96,3601.19C2114.41,3615.95 2113.77,3633.54 2134.95,3657.36C2144.05,3667.62 2155.95,3683 2161.38,3691.6L2171.26,3707.27L2144.41,3699.57C2117.14,3691.75 2083.35,3698.3 2080.38,3711.98C2077.91,3723.36 2114.12,3743.73 2163.45,3758.64C2187.69,3765.95 2208.48,3774.71 2209.69,3778.14C2210.9,3781.56 2234.01,3802.4 2261.05,3824.43C2288.1,3846.46 2318.78,3877.44 2329.23,3893.28C2339.67,3909.11 2370.8,3951.39 2398.38,3987.21L2448.56,4052.39L2446.39,4098.73C2443.86,4152.13 2437.73,4152.04 2394.71,4098.11C2352.88,4045.71 2302.12,3997.52 2292.35,4000.97C2277.15,4006.32 2281.68,4027.03 2306,4062.99C2341.24,4115.11 2361.35,4155.66 2355.5,4162.93C2348.99,4171.04 2380.55,4230.78 2410.95,4267.62C2423.15,4282.43 2439.22,4302.84 2446.7,4312.98L2460.25,4331.45L2431.08,4314.53C2405.57,4299.8 2402.48,4299.57 2406.76,4312.46C2409.45,4320.58 2435.95,4360.88 2465.68,4402C2495.4,4443.12 2523.31,4486.89 2527.7,4499.3C2532.07,4511.69 2553.8,4557.37 2575.91,4600.78C2616.82,4681.1 2650.2,4748.39 2685.2,4821.03L2704.7,4861.48L2681.53,4846.01C2668.79,4837.49 2646.45,4827.61 2631.87,4824.08C2606.37,4817.9 2591.53,4808.86 2499.97,4744.01C2463.2,4717.96 2424.41,4703.83 2407.33,4710.23C2404.25,4711.37 2398,4716.93 2393.73,4723.01C2386.89,4732.06 2389.11,4734.87 2408.01,4741.11L2430.3,4748.51L2424.97,4775.77C2422.02,4790.76 2420.61,4822.35 2421.82,4845.96C2423.86,4885.99 2421.51,4892.09 2387.16,4936.22C2357.38,4974.48 2350.2,4980.57 2349.76,4967.93C2349.48,4959.37 2335.07,4910.16 2317.69,4858.58C2294.68,4790.37 2281.92,4761.12 2270.57,4751.35C2262.05,4743.94 2246.19,4715.8 2235.35,4688.82C2219.62,4649.86 2216.75,4634.25 2221.43,4612.83C2228.31,4580.86 2236.05,4573.32 2277.35,4558.73C2327.84,4540.88 2377.52,4552.55 2484.71,4607.35C2537.71,4634.44 2582.79,4655.99 2584.91,4655.25C2591.97,4652.76 2570.01,4625.24 2548.75,4609.99C2533.59,4599.11 2529.49,4592.67 2534.11,4586.92C2543.64,4575.09 2507.34,4554.59 2428.95,4527.59C2307.43,4485.72 2256.55,4490.23 2225.57,4545.54C2193.43,4602.91 2195.15,4614.83 2266.69,4834.79C2303.01,4946.43 2332.4,5048.02 2334.04,5067.45C2338.73,5123.36 2371.06,5193.35 2409.25,5230.28C2450.62,5270.29 2568.16,5352.78 2633.12,5387.42C2660.33,5401.93 2709.83,5432.59 2743.13,5455.54C2845.86,5526.35 2897.04,5547.36 2934.31,5533.91C2943.17,5530.7 2953.82,5523.78 2957.95,5518.55L2957.74,5518.6C2968.48,5504.95 2955.59,5497.61 2915.69,5494.55C2895.42,5492.98 2861.93,5480.84 2835.36,5465.48C2594.42,5326.15 2489.39,5258.37 2435.47,5207.42C2413.45,5186.6 2373.71,5108.68 2383.38,5105.26C2393.46,5101.73 2464.66,5145.57 2538.15,5200.54C2575.59,5228.54 2643.34,5273.86 2688.67,5301.3C2837.79,5391.56 2839.06,5378.88 2691.41,5273.94C2580.45,5195.07 2446.04,5072.79 2434.54,5040.24C2425.04,5013.36 2427.55,4992.21 2445.25,4949.1C2457.2,4919.96 2459.34,4872.47 2451.56,4810.01C2448.96,4789.24 2449.62,4788.67 2466.61,4795.79C2497.52,4808.71 2615.91,4900.16 2608.86,4905.65C2594.32,4917 2544.6,4891.77 2526.46,4863.86C2503.47,4828.49 2487.36,4833.17 2487.82,4875.08C2488.99,4984.26 2516.36,5106.23 2544.46,5127.35C2556.15,5136.12 2557.82,5132.97 2607.15,5008.02C2637.63,4930.82 2645.53,4921.63 2673.46,4931.1C2698.3,4939.52 2759.14,4937.98 2763.51,4928.83C2765.18,4925.38 2760.16,4916.81 2752.55,4909.74C2736.6,4895.16 2727.3,4872.51 2682.46,4739.25C2664.83,4686.89 2634.65,4610.19 2615.53,4568.82C2575.99,4483.47 2537.93,4350.33 2531.58,4275.64C2529.43,4250.35 2531.6,4187.44 2536.44,4135.82C2548.26,4009.53 2548.1,3980.14 2535.51,3980.34C2521.47,3980.55 2512.93,3951.04 2509.13,3888.99C2504.94,3820.66 2495.71,3794.59 2469.76,3778.14C2451.31,3766.45 2445.04,3753.92 2410.75,3660.31L2372.42,3555.57L2386.69,3435.1C2394.54,3368.83 2400.48,3313.21 2399.88,3311.53C2395.67,3299.6 2379.77,3322.83 2354.78,3377.32C2338.75,3412.28 2325.5,3434.59 2325.3,3426.93C2324.7,3403.81 2291.54,3254.28 2264.88,3154.59C2229.42,3021.96 2231.06,2933.26 2273.67,2690.3C2277.15,2670.41 2340.02,2605.31 2384.42,2575.58C2407.21,2560.27 2432.38,2540.97 2440.23,2532.59C2448.18,2524.32 2484.22,2495.57 2520.2,2468.56C2556.22,2441.59 2626.19,2388.24 2675.58,2349.9L2765.38,2280.17ZM2311.02,2457.64C2318.75,2459.02 2305.65,2475.68 2268.61,2507.04C2210.13,2556.35 2130.28,2685.21 2165.77,2672.66C2169.55,2671.46 2181.29,2658.25 2192.1,2643.59C2221.57,2603.6 2228.64,2606.91 2206.53,2650.37C2187.67,2687.43 2186.06,2688.77 2163.81,2685.64C2151.13,2683.88 2124.57,2673.67 2104.84,2662.99C2085.16,2652.33 2068.02,2640.76 2066.77,2637.23C2065.5,2633.7 2061.12,2626.75 2056.84,2621.82C2050.78,2614.71 2062.59,2604.43 2112.65,2573.14C2147.56,2551.32 2199.69,2518.33 2228.47,2499.85C2274.74,2470.14 2303.29,2456.26 2311.02,2457.64ZM5176.61,2476.83C5188.66,2472.74 5273.79,2507.44 5309.08,2530.83C5339.91,2551.27 5331.1,2550.09 5268.68,2525.3C5234.39,2511.68 5208.69,2513.45 5205.16,2529.74C5200.95,2549.12 5189.45,2541.12 5178.94,2511.43C5171.65,2490.81 5170.86,2478.79 5176.61,2476.83L5176.61,2476.83ZM4829.22,2548.62L4854.05,2560.52C4876.93,2571.46 4884.05,2587.98 4868.22,2593.57C4864.65,2594.93 4861.32,2595.17 4860.98,2594.19L4860.98,2594.09C4860.59,2593.06 4853.33,2582.46 4844.79,2570.45L4829.22,2548.62ZM4709.94,2551L4732.6,2574.54C4745.05,2587.48 4759.49,2601.01 4764.72,2604.59C4774.29,2611.16 4787.68,2610.05 4785.15,2602.88C4781.76,2593.28 4748.87,2567.22 4730.37,2559.49L4709.94,2551ZM3679.05,2553.43C3662.78,2553.3 3642.97,2565.41 3614.55,2591.14C3592.53,2611.02 3569.82,2633.77 3564.02,2641.57C3553.85,2655.24 3554.07,2655.56 3570.9,2650.01C3580.49,2646.81 3612.57,2637.23 3642.07,2628.59C3671.56,2619.92 3701.76,2607.52 3709.16,2600.82L3709.16,2600.76C3724.79,2586.61 3724.87,2586.62 3705.64,2566.67C3697.33,2558.06 3688.82,2553.52 3679.05,2553.43L3679.05,2553.43ZM3783.64,2618.14C3776.76,2617.9 3770.54,2618.47 3766.06,2620.06C3741.1,2628.89 3662.6,2684.25 3619.36,2723.56C3588.03,2752.06 3582,2755.08 3564.95,2751.28C3554.03,2748.84 3514.86,2755.58 3474.01,2766.91C3377.62,2793.66 3323.64,2801.62 3301.36,2792.36C3270.51,2779.53 3214.68,2775.39 3190.25,2784.13C3155.99,2796.39 3106.61,2832.18 3075.06,2867.72C3035.59,2912.14 3032.48,2922.18 3064.19,2902.84C3078.48,2894.12 3117.11,2877.38 3150.06,2865.6C3209.41,2844.41 3210.36,2844.25 3250.41,2859.7C3291.17,2875.44 3310.19,2875.72 3428.6,2862.08C3461.97,2858.25 3503.89,2856.26 3521.76,2857.68C3561.03,2860.8 3566.51,2859.21 3578.66,2841.44L3578.71,2841.55C3585.76,2831.21 3585.09,2821.41 3576.07,2803.01C3563.22,2776.8 3569.01,2768.07 3589.78,2782.27C3608.4,2795.01 3638.39,2780.31 3710.04,2723.3C3745,2695.47 3787.56,2665.49 3804.64,2656.68C3821.72,2647.87 3834.84,2638.18 3833.71,2635.06C3830.75,2626.66 3804.28,2618.86 3783.64,2618.14L3783.64,2618.14ZM3206.34,2618.56C3177.77,2618.34 3146.39,2625.97 3102.68,2641.42C3028.14,2667.76 2938.74,2715.28 2942.69,2726.45C2947.75,2740.78 3011.5,2738.23 3078.88,2720.97C3155.77,2701.27 3173.5,2701.12 3240.22,2719.73C3267.92,2727.46 3309.19,2732.43 3331.92,2730.75C3389.73,2726.49 3489.41,2698.86 3492.12,2686.37L3492.17,2686.42C3493.46,2680.51 3485.58,2676.59 3472,2676.39C3383.31,2675.24 3343.79,2667.86 3293.18,2642.92C3260.65,2626.89 3234.9,2618.78 3206.34,2618.56L3206.34,2618.56ZM4282.12,2656.21C4260.72,2658.24 4180.06,2722.58 4067.56,2827.78C3994.34,2896.22 3976.62,2916.52 3980.46,2927.36C3986.91,2945.62 4003.24,2941.36 4027.37,2915.1L4027.37,2915.05C4038.34,2903.1 4100.25,2847.15 4164.96,2790.75C4287.4,2684.02 4304.12,2665.45 4285.64,2656.62C4284.75,2656.2 4283.55,2656.08 4282.12,2656.21L4282.12,2656.21ZM4866.52,2706.28C4867.91,2705.61 4869.06,2706.39 4869.88,2708.66C4873.18,2718.02 4867.82,2729.26 4861.5,2726.25C4858.8,2724.98 4859.06,2718.83 4862.01,2712.64L4861.86,2712.49C4863.48,2709.07 4865.12,2706.95 4866.51,2706.28L4866.52,2706.28ZM4846.6,2738.35C4847.6,2738.83 4848.98,2741.1 4850.58,2745.13C4853.58,2752.39 4853.3,2757.16 4850.17,2755.68C4847.04,2754.19 4844.65,2748.21 4844.84,2742.44L4844.84,2742.39C4844.97,2739.19 4845.6,2737.87 4846.6,2738.35L4846.6,2738.35ZM2945.74,2932.53C2912.74,2933 2864.89,2944.37 2787.62,2968.48C2603.16,3026.04 2538.34,3072.31 2477.83,3189.61C2460.19,3223.81 2447.3,3251.1 2449.18,3250.28C2451.1,3249.48 2482.24,3217.04 2518.44,3178.22L2518.39,3178.17C2572.18,3120.51 2595.03,3101.53 2643.51,3074.46C2723.53,3029.77 2872.56,2983.28 2950.81,2978.56C3031.48,2973.71 3036.76,2969.24 2992.24,2943.08C2980.02,2935.89 2965.54,2932.24 2945.74,2932.53L2945.74,2932.53ZM2599.65,3208.59C2596.7,3208.75 2593.98,3212.59 2592.61,3219.14C2590.86,3227.34 2580.88,3261.88 2570.47,3295.9C2543.32,3384.7 2528.23,3538.89 2547.35,3532.13C2550.68,3530.96 2559.52,3493.2 2567.01,3448.23C2574.49,3403.27 2587.12,3332.44 2595.04,3290.83C2602.96,3249.22 2606.34,3212.69 2602.6,3209.67C2601.61,3208.88 2600.63,3208.53 2599.65,3208.59L2599.65,3208.59ZM2807.22,4351.05C2803.16,4351.56 2800.01,4353.88 2796.41,4357.82C2790.06,4364.47 2783.63,4379.89 2781.82,4391.7C2780.02,4403.53 2774.72,4414.57 2770.03,4416.22C2765.37,4417.87 2759.22,4425.43 2756.43,4433.08C2748.41,4454.85 2778.41,4489.77 2852.79,4545.38C2924.65,4599.06 2971.56,4623.83 3019.97,4633.68C3059.21,4641.65 3073.46,4637.32 3067.09,4619.3C3064.41,4611.72 3050.23,4591.76 3035.59,4574.91C2999.67,4533.56 2999.71,4530.32 3036.11,4546.41C3079.18,4565.47 3150.02,4564.38 3170.8,4544.35C3188.78,4526.9 3182.53,4519.01 3153.11,4521.9C3101.66,4526.97 3061.18,4511.44 3018.21,4470.22C2988.02,4441.26 2966.75,4427.8 2941.35,4421.45C2922.03,4416.6 2898.97,4406.1 2890.09,4398.07C2881.21,4390.04 2859.01,4374.89 2840.79,4364.44C2823.18,4354.35 2813.99,4350.19 2807.22,4351.05L2807.22,4351.05Z" style="fill-rule:nonzero;"/>
                <path id="path340" d="M4197.91,2246.29C4183.78,2246.02 4159.19,2258.8 4113.75,2287.36C3990.99,2364.53 3854.35,2494.38 3839.4,2547.9C3829.96,2581.79 3839.68,2593.78 3858.75,2571.8C3898.69,2525.75 3982.01,2452.63 4040.93,2411.91C4203.68,2299.39 4222.32,2283.09 4214.26,2260.26C4211.1,2251.32 4206.39,2246.45 4197.91,2246.29Z" style="fill-rule:nonzero;"/>
                <path id="path338" d="M4589.47,2221.67C4597.2,2221.51 4608.98,2222.73 4627.7,2224.72C4655.55,2227.7 4681.06,2232.33 4684.39,2235.01C4691.15,2240.45 4642.71,2250.16 4596.3,2252.7C4568.4,2254.23 4566.82,2253.19 4571.78,2236.82C4575.04,2226.04 4576.6,2221.93 4589.47,2221.67Z" style="fill-rule:nonzero;"/>
                <path id="path336" d="M3053.64,2182.25C3044.64,2182.33 3024.48,2187.72 2996.12,2197.72C2929.78,2221.16 2929.08,2224.26 2986.3,2241.17C3025.51,2252.75 3042.85,2250.56 3037.24,2234.7L3037.3,2234.7C3035.17,2228.67 3038.32,2224.55 3044.95,2224.72C3055.85,2225.02 3064.43,2199.84 3058.82,2183.96C3058.4,2182.79 3056.64,2182.23 3053.64,2182.26L3053.64,2182.25Z" style="fill-rule:nonzero;"/>
                <path id="path334" d="M3961.53,5510.89C3960.61,5510.81 3959.69,5510.94 3958.79,5511.25C3955.21,5512.61 3951.34,5517.37 3950.35,5522.11C3949.34,5526.81 3953.39,5528.96 3959.41,5526.82C3965.41,5524.69 3969.19,5519.75 3967.89,5515.96C3966.86,5513.07 3964.27,5511.13 3961.53,5510.89L3961.53,5510.89Z" style="fill-rule:nonzero;"/>
                <path id="path690" d="M2459.63,3548.43C2443.29,3547.2 2427.46,3549.59 2418.82,3556.96C2403.12,3570.4 2420.31,3587.28 2456.11,3593.63C2496.16,3600.74 2514.65,3595.74 2515.13,3577.75C2515.54,3562.44 2486.85,3550.46 2459.63,3548.43Z" style="fill-rule:nonzero;"/>
                <path id="path688" d="M4237.12,2410.88C4227.48,2408.79 4053.89,2526.71 3986.92,2580.85C3957.62,2604.4 3893.91,2662.79 3845.2,2710.42C3796.47,2758.03 3755.1,2797.49 3753.23,2798.15C3751.35,2798.85 3729.58,2819.1 3704.81,2843.2C3680.06,2867.32 3647.09,2893.6 3631.52,2901.6C3598.99,2918.34 3481.94,2938.85 3426.07,2937.55C3387.76,2936.65 3322.81,2918.52 3298.2,2901.86C3276.18,2886.95 3253.17,2900.65 3241.97,2935.38C3232.2,2965.68 3230.84,2966.81 3193.92,2975.2C3162.44,2982.31 3153.78,2987.25 3143.49,3004.12C3131.21,3024.13 3131.29,3024.5 3149.54,3034.38C3171.28,3046.13 3187.41,3042.01 3201.21,3021.09C3206.7,3012.78 3217.53,3003.56 3225.37,3000.76C3240.62,2995.14 3277.11,3002.66 3280.46,3012.14C3281.59,3015.33 3267.97,3032.75 3250.2,3050.88L3217.87,3083.78L3197.64,3075.19C3166.44,3061.94 3116.09,3058.23 3066.57,3065.57C2966.05,3080.48 2693.27,3164.38 2689.55,3181.54C2686.84,3193.96 2735.25,3188.25 2859.72,3161.47C3041.34,3122.39 3137.01,3112.28 3205.87,3124.9C3229.06,3129.14 3290.43,3150.29 3342.17,3171.86C3423.22,3205.66 3441.08,3216.37 3471.38,3249.45C3522.17,3304.91 3529.86,3298.39 3536.5,3194.47C3540.34,3134.27 3550.35,3105.9 3559.05,3130.54C3564,3144.53 3583.07,3138.03 3610.83,3112.9C3622.54,3102.1 3640.18,3090.54 3650.04,3087.19C3667.61,3080.96 3668,3081.5 3688.47,3139.43C3699.84,3171.62 3714.68,3224.38 3721.42,3256.69C3728.16,3289.01 3738.52,3325.84 3744.43,3338.58L3755.19,3361.75L3762.28,3329.47C3782.1,3239.38 3783.33,3140.08 3765.28,3089C3756.52,3064.22 3757.14,3057.42 3768.8,3048.66C3776.56,3042.9 3839.56,2982.63 3908.92,2914.84C4110.35,2718.01 4145.06,2685.98 4200.91,2644.99C4307.62,2566.68 4392.21,2531.31 4506.71,2517.12C4561.19,2510.39 4580.67,2505.38 4584.56,2497.26C4593.42,2478.73 4569.12,2467.33 4528.64,2471.04C4335.93,2488.7 4192.27,2577.01 3949.06,2827.43C3851.95,2927.42 3737.85,3034.8 3731.76,3031.89C3729.65,3030.88 3761.43,2996.32 3802.32,2955.08C3901.76,2854.71 3960.15,2783.98 3985.01,2733.8C4019.83,2663.51 3995.57,2677.54 3941.66,2758.84C3865.61,2873.53 3721.3,3022.33 3682.11,3026.46C3670.1,3027.71 3669.97,3026.82 3680.97,3017.72C3713.05,2991.31 3747.75,2955.68 3759.23,2937.65C3768.01,2923.83 3759.22,2929.79 3730.57,2957C3675.47,3009.37 3577.81,3089.15 3561.84,3094.74C3554.81,3097.21 3545.02,3093.94 3540.07,3087.35C3526.65,3069.61 3512.66,3066.6 3463.31,3070.79C3409.41,3075.37 3404.21,3073.5 3417.27,3054.4C3429.54,3036.45 3462.36,3024.22 3518.96,3016.48C3561.11,3010.71 3562.13,3010.15 3629.76,2948.98C3751.39,2838.95 3780.88,2813.53 3856.01,2753.87C3896.66,2721.57 3954.75,2674.69 3984.86,2649.49C4015.02,2624.37 4073.12,2580.61 4113.96,2552.25C4205,2488.88 4267.24,2417.42 4237.12,2410.88Z" style="fill-rule:nonzero;"/>
                <path id="path686" d="M4415.47,2410.16C4402.28,2409.97 4388.56,2417.32 4343.41,2443.31C4269.63,2485.92 4246.39,2507.49 4253.26,2526.95C4259.08,2543.45 4272.49,2539.38 4306.69,2510.71L4306.74,2510.82C4320.09,2499.53 4359.2,2479.59 4393.59,2466.38C4444.91,2446.71 4455.81,2440.14 4454.32,2430.18C4453.26,2423.49 4442.19,2415.51 4429.64,2412.43C4424.22,2411.11 4419.87,2410.22 4415.47,2410.16L4415.47,2410.16Z" style="fill-rule:nonzero;"/>
                <path id="path682" d="M4562.78,1655.02C4550.07,1650.95 4411.48,1697.95 3807.54,1911.16L3067.87,2172.32L3091.3,2184.48C3104.18,2191.16 3151.78,2201 3197.08,2206.36C3285.95,2216.87 3330.97,2228.54 3440.44,2269.51C3546.85,2309.34 3603.65,2323.67 3620.4,2314.93C3630.64,2309.56 3637.53,2291.96 3642.9,2257.15C3647.13,2229.61 3650.66,2203.84 3650.71,2199.84C3650.82,2195.83 3678.01,2196 3711.28,2200.15C3812.89,2212.84 3856.64,2185.31 3857.4,2108.28C3857.62,2087.65 3858.76,2054.82 3859.94,2035.35L3862.06,1999.97L3904.01,1989.32C3933.06,1981.92 3966.25,1981.24 4012.01,1987.04L4078.06,1995.42L4201.43,2088.63C4294.86,2159.23 4350.09,2194.55 4429.07,2234.19C4486.44,2262.97 4532.63,2288.12 4531.7,2290.05C4530.76,2291.83 4514.8,2295.8 4496.26,2298.58C4457.24,2304.46 4421.57,2322.22 4403.73,2344.72L4391.21,2360.45L4418.11,2374.26C4432.89,2381.85 4449.7,2386.41 4455.5,2384.35C4461.31,2382.29 4480.87,2382.34 4499.01,2384.5C4517.14,2386.68 4563.56,2389.58 4602.2,2390.92C4697.51,2394.23 4742.93,2404.07 4779.62,2429.4C4796.64,2441.16 4809.64,2452.69 4808.53,2455.01C4807.36,2457.31 4770.88,2453.57 4727.32,2446.73C4640.85,2433.13 4577.98,2432.75 4575.15,2445.75C4573.49,2453.42 4615.5,2476.53 4738.65,2535.8C4810.35,2570.3 4842.01,2593.19 4858.7,2622.6C4877.15,2655.09 4870.09,2656.06 4840.29,2625.18C4814.04,2597.88 4813.57,2599.22 4832.27,2646.96C4854.06,2702.47 4831.58,2705.45 4791.05,2652.44C4766.04,2619.75 4746.22,2601.73 4742.89,2608.68C4741.96,2610.47 4753.69,2632.15 4768.81,2656.89C4798.76,2705.94 4818.35,2752.99 4805.69,2745.55C4801.33,2743 4778.3,2719.32 4754.53,2693C4678.34,2608.57 4628.55,2578.84 4578.51,2587.89C4556.46,2591.87 4553.47,2594.54 4557.56,2606.2C4560.23,2613.75 4572.9,2624.54 4585.75,2630.2C4615.64,2643.35 4618.83,2652.26 4592.78,2649.96C4566.36,2647.64 4540.96,2666.07 4446.61,2756.15C4360.43,2838.43 4344.34,2860.52 4360.17,2874.97C4373.25,2886.91 4356.65,2924.68 4316.62,2974.02C4303.01,2990.81 4271.83,3031.53 4247.31,3064.54C4222.8,3097.56 4199.76,3127.92 4196.15,3131.99C4183.34,3146.4 4153.79,3172.26 4149.39,3172.85C4146.98,3173.25 4135.13,3194.51 4123.07,3220.23C4110.42,3247.24 4105.51,3265.59 4111.48,3263.63C4118.44,3261.35 4117.91,3266.8 4109.88,3280.29C4100.6,3295.85 4095.92,3298.83 4089.13,3293.37C4082.16,3287.77 4079.27,3288.75 4074.75,3298.03C4070.26,3307.43 4070.87,3309.16 4077.91,3306.67C4094.34,3300.86 4082.88,3321.89 4056.29,3346.44L4029.8,3370.86L3990.96,3365.74C3949.94,3360.32 3914.91,3345.23 3892.27,3323.27C3867.66,3299.39 3849.75,3311.53 3838.11,3360.05C3828.92,3398.39 3829.47,3407.73 3842.45,3431.58C3863.43,3470.12 3952.33,3540.41 3971.51,3533.64C3974.84,3532.47 3971.79,3526.26 3964.68,3519.88C3957.66,3513.47 3951.05,3502.48 3950.04,3495.46C3948.63,3486.56 3959.03,3490.86 3984.29,3509.43C4046.61,3555.52 4076.47,3567.54 4067.82,3543.05C4062.79,3528.81 4114.19,3510.67 4133.46,3519.88C4141.28,3523.61 4151.34,3525.39 4155.81,3523.81C4160.31,3522.27 4193.03,3476.02 4228.59,3421.14C4264.13,3366.25 4301.67,3310 4311.97,3296.12C4322.28,3282.23 4346.34,3239.76 4365.45,3201.72C4405.35,3122.3 4429.02,3088.51 4496.57,3014.47C4592.16,2909.71 4618.09,2901.63 4714.8,2946.66C4751.2,2963.61 4788.38,2977.26 4797.41,2976.97C4830.68,2975.9 5045.44,3162.03 5101.66,3240.66C5130.32,3280.75 5163.55,3378.97 5208.42,3556.14L5228.13,3633.93L5257.3,3654.05C5273.34,3665.13 5297.54,3685.9 5311.1,3700.24C5324.64,3714.57 5340.85,3728.11 5347.1,3730.25C5353.33,3732.38 5371.83,3750.68 5388.17,3770.95C5412.7,3801.38 5420.38,3817.39 5432.39,3862.82C5458.84,3962.98 5463,4194.94 5439.68,4267.26C5427.5,4305.03 5386.09,4359.59 5363.54,4367.56C5354.53,4370.74 5330.47,4388.6 5310.06,4407.23C5289.63,4425.83 5260.28,4445.51 5244.83,4450.94C5229.39,4456.37 5214.76,4463.08 5212.35,4465.99C5207.36,4471.86 5244.38,4493.28 5360.54,4551.65C5404.62,4573.79 5446.56,4598.87 5453.75,4607.35C5461.81,4616.85 5470.07,4620.01 5475.27,4615.58C5483.66,4608.42 5503.36,4636.19 5517.17,4674.65C5523.77,4693.08 5514.09,4819.46 5505.84,4822.38C5502.83,4823.46 5501.64,4834.77 5503.2,4847.52C5505.47,4865.81 5490.31,5005.48 5484.74,5017.64C5484.01,5019.25 5476.52,5017.1 5467.98,5012.98C5455.11,5006.84 5443.91,5009.52 5401.67,5029.07C5373.74,5041.99 5351.9,5055.49 5353.15,5059.02C5357.71,5071.92 5315.15,5074.14 5307.84,5061.3C5297.83,5043.77 5214.73,4939.99 5213.28,4943.21C5212.71,4944.7 5226.33,4967.48 5243.7,4993.9C5261.08,5020.31 5293.85,5077.95 5316.53,5122.02C5339.2,5166.1 5371.15,5227.63 5387.55,5258.73C5460.66,5397.46 5546.61,5699.33 5534.86,5776.19C5531.59,5797.61 5484.99,5992.03 5480.65,6002.39C5476.95,6011.24 5480.88,5792.96 5485.62,5726.48C5487.15,5704.97 5485.57,5679.34 5482.1,5669.53C5476.41,5653.45 5473.88,5652.89 5456.24,5663.38C5445.57,5669.9 5436.32,5674.1 5435.91,5672.95C5435.48,5671.77 5434.99,5653.87 5434.77,5633.17C5434.21,5583.8 5384.05,5458.1 5332.46,5376.82C5297.5,5321.75 5177.5,5170.11 5164.56,5164.64C5158.74,5162.18 5178.65,5204.15 5199.52,5238.35C5206.44,5249.67 5204.32,5248.79 5192.69,5235.4C5150.06,5186.61 5160.83,5229.81 5210.44,5306.42C5241.09,5353.76 5241.66,5355.35 5228.07,5356.49C5216.37,5357.49 5215.81,5360.74 5224.61,5376.56C5230.46,5386.95 5255.88,5432.52 5281.3,5477.79C5306.72,5523.06 5339.92,5590.73 5355.06,5628.15L5382.58,5696.17L5388.58,5667.62L5394.53,5639.02L5407.1,5654.12C5427.14,5678.2 5424.61,5701.26 5398.77,5731.92C5385.52,5747.62 5373.89,5769.54 5372.91,5780.64C5370.81,5804.57 5346.19,5809.04 5344.25,5785.86C5342.02,5759.48 5337.21,5773.37 5333.65,5816.38C5331.69,5839.85 5323.53,5875.46 5315.49,5895.52L5300.85,5931.99L5220.01,5924.18C5175.55,5919.88 5113.16,5917.15 5081.33,5918.18C5035.56,5919.66 5019.21,5916.6 5003.17,5903.54C4992.02,5894.46 4981.03,5881.72 4978.71,5875.19C4973.01,5859.17 4973.48,5859.2 4874.69,5871.26C4765.03,5884.67 4655.33,5912.61 4496.21,5967.63L4371.19,6010.92L4363.28,6034.2C4358.93,6047.03 4349.31,6059.67 4341.86,6062.29C4334.44,6064.91 4329.46,6070.25 4330.85,6074.13C4332.21,6077.98 4338.4,6079.33 4344.61,6077.13C4351.51,6074.69 4355.77,6077.53 4355.57,6084.58C4355.4,6090.87 4359.33,6095.93 4364.16,6095.86C4369.09,6095.85 4355.45,6113.08 4333.9,6134.29C4312.34,6155.51 4295.27,6174.49 4295.98,6176.5C4296.71,6178.55 4300.8,6177.57 4305.09,6174.38C4309.32,6171.07 4323.33,6162.83 4336.02,6155.75L4359.09,6142.87L4341.24,6164.96C4331.43,6177.09 4324.09,6189.05 4325,6191.6C4325.89,6194.1 4353.91,6184.78 4387.23,6170.7C4444.07,6146.91 4448.63,6146.09 4459.64,6157.82C4470.71,6169.64 4476.61,6168.53 4562.68,6138.48C4688.59,6094.42 4771.1,6088.62 4954.76,6110.65C5021.75,6118.69 5052.55,6127.71 5125.04,6160.31C5173.72,6182.2 5229.58,6203.71 5249.13,6208.15C5268.69,6212.61 5293.02,6220.87 5303.28,6226.51C5327.75,6239.96 5338.18,6235.47 5340.37,6210.53C5343.36,6176.66 5355.62,6182.61 5370.99,6225.38L5385.42,6265.62L5394.53,6241.88C5399.55,6228.81 5407.35,6199.45 5411.86,6176.6C5422.44,6122.9 5433.3,6136.01 5425.87,6193.51C5419.62,6241.99 5324.8,6451.31 5285.39,6503.66C5257.9,6540.17 5216.32,6556.77 5065.24,6591.75C5004.66,6605.76 4853.24,6652.54 4666.54,6714.9C4394.23,6805.84 4363.85,6814.73 4347.66,6807.96C4337.8,6803.84 4327.26,6801.29 4324.23,6802.37C4321.2,6803.46 4295.32,6795.14 4266.71,6783.91C4223.51,6766.94 4210.04,6757.3 4187.46,6727.06C4146.27,6671.88 4077.39,6610.95 3984.49,6547.57C3870.7,6469.94 3857.49,6463.91 3818.3,6471.49C3791.14,6476.72 3780.31,6474.2 3755.09,6456.8C3738.36,6445.23 3722.62,6429.87 3720.07,6422.66C3704.28,6377.96 3568.95,6259.15 3484.26,6215.6C3434.2,6189.86 3419.8,6178.14 3392.91,6141.11C3314.17,6032.72 3275.57,5961.49 3218.85,5819.85C3119.74,5572.32 3054.21,5432.25 2988.42,5327.37C2972.32,5301.72 2957.22,5283.14 2954.9,5286.04C2949.93,5292.16 3024.09,5487.97 3084.06,5626.81C3250.89,6013.63 3268.1,6047.61 3364.56,6182.29C3394.46,6224.02 3422.49,6264.03 3426.89,6271.15C3436.66,6286.98 3413.46,6516.71 3388.2,6654.28C3365.68,6777 3357.23,6863.41 3357.27,6970.48C3357.29,7016.05 3354.76,7058.99 3351.63,7065.97C3343,7085.26 3319.46,7082.13 3281.03,7056.5C3261.93,7043.77 3241.23,7035.16 3234.99,7037.36C3228.75,7039.58 3201.6,7063.76 3174.52,7091C3147.51,7118.32 3092.33,7167.59 3051.88,7200.5C2970.15,7267 2911.55,7321.85 2882.84,7358.68L2863.81,7383.09L2886.1,7370.47C2898.35,7363.56 2949.41,7323.65 2999.64,7281.82C3049.84,7239.94 3092.41,7206.4 3094.25,7207.28C3099.07,7209.61 3087.13,7284.84 3070.3,7358.16C3053.66,7430.61 3030.13,7441.57 2883.36,7445.22C2804.24,7447.18 2778.39,7455.15 2722.81,7494.82C2694.3,7515.17 2682.48,7539.62 2660.58,7623.36C2643.68,7687.98 2623.83,7719.95 2570.06,7768.86C2551.99,7785.3 2526.55,7811.29 2513.53,7826.64C2493.89,7849.76 2489.17,7852.61 2485.9,7843.35C2482.45,7833.58 2470.59,7834.36 2443.18,7846.14C2441.15,7847.04 2432.93,7844.54 2424.92,7840.71C2409.47,7833.32 2360.74,7846.45 2364.45,7856.95C2365.65,7860.34 2374.23,7862.46 2383.54,7861.71C2392.84,7860.91 2399.2,7862.88 2397.71,7866C2396.19,7869.09 2381.36,7869.59 2364.71,7867.04L2334.4,7862.38L2370.4,7824.16C2390.21,7803.14 2409.92,7779.75 2414.16,7772.17C2418.41,7764.61 2434.55,7745.02 2450.06,7728.67C2465.55,7712.3 2472.5,7702.7 2465.47,7707.36C2458.43,7712.02 2426.56,7732.4 2394.66,7752.67C2362.75,7772.94 2320.34,7803.57 2300.36,7820.74C2280.38,7837.91 2253.7,7858.03 2241.19,7865.54C2228.62,7872.98 2193.27,7903.44 2162.57,7933.25C2131.87,7963.06 2058.17,8029.95 1998.81,8081.85C1939.43,8133.76 1863.32,8204.82 1829.66,8239.72C1796.01,8274.64 1749.19,8318.96 1725.64,8338.26C1648.51,8401.29 1613.62,8438.27 1568.29,8504.92C1543.73,8541.04 1503.35,8598.61 1478.55,8632.83C1453.76,8667.07 1406.35,8738.97 1373.24,8792.67C1340.13,8846.36 1291.12,8918.68 1264.3,8953.33C1237.49,8987.97 1188.77,9051.18 1156.09,9093.81C1154.97,9095.28 1153.63,9096.7 1152.47,9098.21L1152.47,9285.51C1310.02,9231.22 1630.94,9119.17 2214.71,8912.82L3503.81,8457.17L3508.57,8362.93C3511.2,8311.08 3514.75,8248.18 3516.43,8223.17C3518.1,8198.16 3518.21,8174.2 3516.69,8169.89C3512.82,8158.96 3498.8,7947.87 3490.2,7771.76C3480.5,7572.69 3469.22,7482.45 3440.24,7371.15C3420.79,7296.45 3415.71,7261.07 3415.41,7198.44C3415.2,7155.11 3414.21,7096.84 3413.24,7068.97C3409.74,6968.91 3417.26,6801.61 3431.96,6652.01C3451.53,6453.02 3458.64,6367.32 3457.83,6339.07C3457.07,6312.94 3458.17,6310.58 3464.5,6324.85C3482.93,6366.34 3488.61,6401.55 3486.07,6458.45C3483.72,6511.35 3498.88,6609.03 3507.02,6593.4C3508.71,6590.52 3508.98,6567.64 3507.89,6542.87C3506.8,6518.09 3508.57,6496.4 3511.83,6494.66C3515.03,6492.85 3526.37,6516.23 3536.91,6546.44C3552.26,6590.38 3554.43,6605.39 3547.98,6621.44C3536.81,6649.26 3536,6677.67 3545.19,6719.51L3553.05,6755.25L3555.33,6714.96C3556.59,6692.82 3560.35,6668.79 3563.71,6661.58C3568.85,6650.51 3570.95,6653.64 3576.79,6680.66C3580.67,6698.34 3583.97,6732.27 3584.14,6756.08C3584.6,6817.48 3634.33,7196.04 3641.61,7193.47C3650.84,7190.22 3641.18,7058.38 3619.98,6898.53C3614.12,6854.34 3611.62,6817.39 3614.45,6816.39C3620.85,6814.13 3622.09,6820.93 3649.73,7009.12C3675.21,7182.69 3689.35,7248.48 3697.68,7232.21C3700.58,7226.49 3696.47,7169.35 3688.52,7105.23C3680.57,7041.1 3671.56,6968.27 3668.45,6943.33C3662.81,6898.03 3662.8,6898.01 3675.07,6925.12C3687.94,6953.53 3708.2,7061.45 3715.37,7139.78C3717.68,7165 3721.38,7195.66 3723.59,7207.9C3725.75,7220.16 3726.64,7236.48 3725.45,7244.21C3724.27,7251.95 3727.11,7268.71 3731.76,7281.45C3739.71,7303.33 3740.48,7303.67 3745.68,7287.4C3751.88,7267.89 3748.56,7167.14 3738.75,7076.41L3732.18,7015.48L3750.02,7078.17C3759.83,7112.65 3768.31,7161.14 3768.9,7185.92C3770.01,7232.1 3787.91,7323.29 3795.33,7320.66C3797.61,7319.86 3798.44,7305.34 3797.14,7288.44C3795.85,7271.53 3797.2,7256.84 3800.14,7255.8C3812.09,7251.6 4085.17,7835.49 4099.48,7895.8C4100.45,7899.78 4088.01,7908.46 4071.86,7915.04C4026.41,7933.53 3944.45,7991.64 3906.28,8032.4C3859.71,8082.18 3805.29,8156.48 3745.57,8251.72C3718.26,8295.26 3684.41,8347.25 3670.31,8367.27C3648.23,8398.66 3646.89,8403.3 3660.8,8400.59C3679.24,8397.03 3687.99,8386.49 3753.59,8289.01C3821.74,8187.73 3939.49,8046.75 3986.41,8010.27C4008.59,7993.13 4040.92,7972.55 4058.41,7964.7C4075.88,7956.79 4096.26,7947.36 4103.62,7943.64C4114.58,7938.03 4119.04,7941.4 4128.34,7962.06C4139.34,7986.53 4138.95,7987.76 4112.2,8005.72C4005.66,8077.28 3955.01,8124.36 3925.94,8178.89C3916.16,8197.23 3888.56,8241.27 3864.54,8276.81L3820.83,8341.46L3860.51,8329.77C3882.31,8323.38 3905.59,8312.1 3912.28,8304.84C3921.01,8295.16 3927.38,8293.04 3934.79,8296.46C3953.11,8305.22 4076.93,8255.96 4183.07,8197.67C4244.67,8163.81 4312.05,8132.34 4356.71,8116.56L4429.69,8090.75L4432.54,8109.48L4435.44,8128.25L4493.78,8107.61L4552.13,8087.03L4547.94,8060.23C4545.65,8045.51 4547.55,8030.26 4552.13,8026.35C4556.75,8022.5 4558.7,8014.28 4556.58,8008.25C4554.45,8002.22 4555.24,7990.77 4558.39,7982.8C4561.51,7974.83 4563.78,7958.09 4563.4,7945.56C4562.93,7929.38 4569.11,7917.68 4584.72,7905.26C4613.06,7882.77 4660.69,7817.4 4675.13,7781.43C4681.33,7766.02 4691.14,7753.5 4696.91,7753.66C4719.31,7754.26 4845.33,7943.92 4827.51,7950.21C4823.94,7951.57 4792.56,7939.29 4757.94,7923.06C4723.33,7906.83 4686.86,7891.32 4676.94,7888.56C4657.71,7883.2 4625.66,7891.12 4628.94,7900.4C4630.02,7903.46 4651.3,7928.81 4676.27,7956.68C4701.22,7984.55 4723.12,8011.26 4724.89,8016.06C4727.39,8022.8 4765.89,8011.47 4893.15,7966.51L5058.16,7908.16L5034.31,7885.5C5002.49,7855.31 4856.94,7677.92 4859.53,7672.5C4860.71,7670.2 4888.11,7682.01 4920.52,7698.83C4970.84,7724.97 4989.99,7730.08 5051.74,7733.85C5091.52,7736.27 5124.8,7740.38 5125.71,7742.95C5126.61,7745.51 5124,7753.22 5119.92,7760.07C5115.83,7766.91 5115.11,7779.88 5118.32,7788.93C5122.39,7800.46 5115.14,7820.4 5094.11,7855.71L5064.16,7906.04L5928.9,7600.5L6793.65,7294.95L6751.03,7273.9C6727.6,7262.34 6631.48,7228.64 6537.45,7199.01C6304.75,7125.66 6223.7,7077.92 6061.11,6918.5C5937.34,6797.14 5930.07,6791.79 5850.39,6764.36C5721.48,6719.97 5709.68,6713.05 5734.42,6696.28C5749.6,6685.88 5751.32,6666.17 5738.19,6651.85C5729.98,6642.9 5728.9,6644.13 5730.18,6660.44C5731.05,6670.96 5727.4,6681.95 5722.11,6684.85C5710.43,6691.27 5674.02,6679.79 5682.54,6672.39C5685.9,6669.56 5701.6,6653.76 5717.55,6637.47L5746.52,6607.84L5765.09,6618.8C5775.3,6624.84 5819.84,6643.61 5864.04,6660.54C5977.82,6704.13 6202.09,6804.02 6269.15,6840.96C6300.35,6858.15 6345.62,6886.5 6369.76,6904.02C6420.39,6940.74 6619.79,7102.68 6621.97,7108.85C6622.78,7111.13 6656.41,7137.23 6696.72,7166.88C6737.02,7196.53 6784.19,7234.35 6801.51,7250.89L6832.96,7280.94L7220.23,7144.07L7220.23,5811.78C7209.29,5783.43 7198.89,5757.62 7193.23,5746.65C7179.16,5719.35 7174.47,5715.87 7153.09,5716.81C7105.44,5718.91 7060.26,5717.05 7040.23,5712.15C7010.89,5704.95 6873.72,5715.64 6770.58,5733.15C6644.01,5754.64 6649.43,5754.57 6636.87,5734.81C6613.32,5697.7 6500.53,5543.76 6438.3,5463.77C6398.59,5412.72 6324.75,5332.86 6248.52,5258.57C6179.88,5191.68 6106.05,5118.35 6084.49,5095.59C6027.32,5035.23 5930.98,4956.54 5924.35,4964.77C5918.49,4971.88 5878.78,4984.8 5872.16,4981.69C5870.05,4980.67 5864.55,4928.66 5859.75,4865.98C5854.94,4803.3 5845.59,4704.2 5838.95,4645.78C5832.32,4587.36 5827.57,4537.83 5828.4,4535.71C5829.22,4533.7 5839.27,4535.76 5850.75,4540.62C5927.94,4573.18 5961.84,4544.62 6037.68,4383.02C6095.21,4260.42 6142.24,4180.73 6180.91,4140.27C6208.34,4111.59 6220.47,4076.15 6231.76,3992.13C6238.13,3944.63 6236.74,3934.89 6214.74,3871.87C6199.09,3827.04 6182.18,3791.69 6165.86,3769.76C6147.08,3744.53 6125.27,3695.48 6077.87,3572.01C6018.19,3416.52 6013.38,3406.59 5988.03,3384.66C5969.13,3368.34 5955.18,3362.52 5940.59,3365.01C5929.19,3366.86 5903.74,3369.56 5883.9,3370.8L5847.85,3373.13L5825.45,3410.06C5813.15,3430.37 5797.07,3467.82 5789.71,3493.24C5770.35,3560.14 5768.64,3562.35 5762.35,3528.62C5734.05,3376.94 5695.86,3196.77 5685.28,3165.19C5678.16,3143.83 5671.59,3114.36 5670.79,3099.66C5669.98,3084.97 5660.13,3052.94 5648.91,3028.48C5634.28,2996.56 5628.57,2973.99 5628.53,2948.51C5628.53,2928.98 5625.23,2903.49 5621.19,2891.88C5617.14,2880.24 5613.12,2859.34 5612.29,2845.43C5611.1,2825.67 5605.53,2814.73 5586.84,2795.3C5572.97,2780.9 5557.32,2754.6 5549.5,2732.77C5538.86,2703.04 5525.96,2685.41 5488.15,2648.97C5461.82,2623.59 5438.73,2598.45 5436.84,2593.11C5432.62,2581.17 5447.57,2575.05 5462.96,2582.35C5485.36,2593.07 5466.37,2563.6 5422.98,2520.43C5399.55,2497.13 5377.34,2469.54 5373.63,2459.09C5369.94,2448.63 5362.32,2435.71 5356.72,2430.38C5351.08,2425.04 5340.91,2412.01 5334.06,2401.41C5324.05,2385.87 5323.95,2383.17 5333.65,2387.71C5348.33,2394.57 5378.95,2384.8 5375.23,2374.31C5373.77,2370.18 5375.69,2360.43 5379.43,2352.59C5383.17,2344.77 5384.7,2334.1 5382.89,2328.95C5379.7,2319.92 5312.83,2276.11 5257.66,2246.91C5224.46,2229.34 5206.81,2202.1 5210.95,2174.96C5213.68,2157.13 5210.78,2151.39 5188.77,2130.48C5174.85,2117.27 5154.73,2088.24 5144.02,2065.97C5133.33,2043.71 5120.23,2018.79 5114.95,2010.63C5107.59,1999.25 5108.56,1993.66 5118.94,1986.63C5134.69,1976 5132.4,1965.68 5111.28,1951.71C5090.02,1937.68 5089.55,1931.32 5109.26,1924.35C5118.67,1921.01 5127.22,1914.55 5128.25,1910.07C5132,1892.75 4906.35,1780.45 4829.22,1761.26C4804.26,1755.04 4785.29,1746.92 4787.07,1743.21C4788.93,1739.61 4801.73,1725.75 4815.67,1712.59C4855.93,1674.59 4843.89,1667.63 4766.38,1684.03C4592.53,1720.8 4568.52,1723.7 4542.56,1711.29L4517.68,1699.4L4550.84,1687.71C4585.87,1675.33 4590.09,1663.75 4562.78,1655.02L4562.78,1655.02ZM4636.54,2302C4649.27,2302.18 4664.98,2305.79 4692.15,2313.01C4749.32,2328.21 4789.41,2346.97 4794.31,2360.81C4796.85,2368.03 4797.55,2368.11 4718.68,2349.43C4687.53,2342.04 4640.24,2333.84 4613.58,2331.17L4565.11,2326.31L4598.73,2311.72C4614.05,2305.1 4623.82,2301.83 4636.54,2302ZM6014.72,3498.56C6015.86,3498.16 6034.44,3547.51 6055.94,3608.27C6081.49,3680.56 6105.05,3735.33 6124.06,3766.66C6140.05,3792.99 6160.06,3833.85 6168.5,3857.49C6183.2,3898.57 6183.19,3927.35 6168.5,4012.4C6167.29,4019.34 6165.09,4036.11 6163.58,4049.64C6161.01,4073.14 6088.72,4187.1 6079.27,4182.58C6076.92,4181.46 6081.42,4163.08 6089.61,4141.87L6089.51,4141.82C6097.7,4120.59 6106.22,4086.9 6108.44,4066.97C6112.24,4033.01 6111.45,4030.3 6096.49,4023.26C6081.58,4016.24 6079.51,4018.26 6064.89,4053.99C6056.29,4075.02 6044.01,4110.41 6037.63,4132.66C6030.56,4157.3 6020.64,4175 6012.23,4177.97C6004.63,4180.67 5998.22,4182.09 5997.9,4181.13C5997.53,4180.07 5996.37,4156.64 5995.16,4128.84C5991.8,4051.19 5975.1,4013.47 5878.83,3866.12C5850.87,3823.31 5844.97,3797.98 5856.49,3769.86C5866.96,3744.35 5867.3,3744.15 5882.82,3754.19C5896.31,3762.94 5899,3762.54 5901.49,3751.5C5903.84,3741.22 5905.53,3741.83 5910.07,3754.45C5916.98,3773.56 5916.73,3773.19 5944.16,3806.9C5975.38,3845.28 5988.42,3842.08 5973.75,3799.66C5961.98,3765.74 5961.98,3765.69 5980.37,3776.53C6002.32,3789.56 6044.2,3865.85 6071.41,3942.37C6090.4,3995.78 6107.29,4020.9 6111.44,4001.85C6114.52,3987.66 6068.02,3861.55 6040.32,3809.02C6026.81,3783.41 5997.8,3736.85 5975.87,3705.57C5953.93,3674.28 5933.25,3641.02 5929.94,3631.65C5923.28,3612.82 5932.99,3582.59 5947.27,3577.55C5958.23,3573.67 5970.31,3591.61 6044.87,3722.69C6103.95,3826.54 6108.15,3838.54 6107.93,3901.81C6107.84,3922.63 6110.14,3940.78 6113.05,3942.16C6125.32,3948.01 6142.13,3924.72 6144.96,3897.93C6148.91,3860.57 6141.36,3840.44 6087.49,3744.98C6062.99,3701.56 6033.69,3645.02 6022.42,3619.29C6004.55,3578.49 6002.96,3569.09 6010.06,3545.89L6018.23,3519.3L6003.49,3530.16C5995.31,3536 5986.78,3546.58 5984.4,3553.49C5978.82,3569.76 5972.06,3571.89 5967.44,3558.82C5964.65,3550.91 6002.27,3502.95 6014.72,3498.56L6014.72,3498.56ZM4643.78,3530.79C4560.05,3527.45 4500.88,3583.64 4512.71,3659.43C4529.93,3769.66 4658.62,3812.34 4722.72,3729.1L4722.72,3729.05C4749.65,3694.01 4764.24,3637.73 4753.7,3609.15C4740.39,3573.32 4696.65,3536.96 4660.85,3532.23C4655.07,3531.47 4649.37,3531.01 4643.78,3530.79L4643.78,3530.79ZM3273.84,5440.03C3271.32,5440.5 3272.96,5446.47 3277.87,5460.77C3282.66,5474.75 3295.6,5501.65 3306.58,5520.51C3344.37,5585.47 3488.77,5867.08 3546.48,5988.42C3573.63,6045.47 3604.37,6094.22 3611.6,6091.66C3615.14,6090.34 3611.11,6069.62 3602.55,6045.52C3594,6021.41 3574.35,5975.98 3558.9,5944.56C3543.44,5913.12 3509.34,5841.7 3483.12,5785.86C3399.85,5608.52 3316.68,5466.66 3283.04,5444.53C3278.35,5441.44 3275.35,5439.74 3273.84,5440.03ZM6049.79,5786.53L6069.86,5825.85C6110.82,5906.13 6141.74,6056.94 6122.87,6084.52C6113.56,6098.15 6084.46,6181.26 6063.49,6254.13C6055.07,6283.39 6042.12,6309.2 6031.53,6317.7C6003.29,6340.38 5998.32,6338.95 6009.9,6311.6C6015.85,6297.57 6029.91,6256.05 6041.15,6219.32C6052.39,6182.59 6065.3,6146.37 6069.8,6138.84C6074.3,6131.3 6079.01,6117.33 6080.3,6107.85C6084.22,6078.9 6044.75,6163.47 6026.61,6222.94C6017.31,6253.4 5996.32,6299.4 5979.96,6325.2L5950.21,6372.17L5979.28,6285.48C6007.08,6202.65 6016.94,6165.13 6010.27,6167.49C6008.53,6168.09 5993.33,6207.42 5976.39,6254.86C5959.46,6302.3 5940.78,6346.44 5934.85,6352.93C5924.48,6364.31 5924.25,6363.85 5927.71,6338.34C5929.72,6323.82 5928.69,6315.34 5925.39,6319.46C5922.04,6323.52 5917.45,6341.12 5915.14,6358.46C5910.94,6390.1 5897.27,6410.72 5888.19,6399.07C5885.38,6395.42 5871.09,6403.99 5853.95,6419.91C5820.92,6450.36 5742.12,6506.86 5723.5,6513.43C5715.1,6516.43 5711.4,6513.7 5711.66,6504.69C5711.88,6495.72 5709.31,6493.76 5703.28,6498.43C5698.51,6502.16 5695.93,6512.32 5697.64,6520.98C5700,6532.59 5694.4,6540.37 5676.74,6550.62C5663.57,6558.28 5649.79,6570.86 5646.07,6578.55C5634.25,6603.3 5628.07,6580.89 5638.1,6549.74L5638.05,6549.69C5643.24,6533.64 5646.95,6518.02 5646.33,6515.03C5643.46,6501.39 5646.43,6485.34 5652.12,6483.32C5662.57,6479.63 5664.22,6495.04 5656.36,6522.48C5652.25,6536.78 5651.66,6549.81 5655.07,6551.45C5662.83,6555.15 5680.92,6508.56 5684.4,6475.82C5687.19,6449.61 5700.19,6411.11 5707.05,6408.69C5717.69,6404.92 5719.55,6436.19 5709.54,6450.22C5699.32,6464.5 5699.65,6466.67 5713.11,6473.08C5731.45,6481.84 5747,6477.29 5737.36,6466.05C5733.41,6461.43 5732.53,6439.86 5735.35,6418.1C5740.85,6375.66 5736.18,6365.97 5720.04,6386.24C5704.8,6405.35 5698.09,6396.78 5706.17,6368.55C5713.74,6342.11 5728.15,6329.77 5727.59,6350.18C5726.96,6373.77 5739.19,6357.34 5747.76,6323.08C5755.53,6291.99 5769.53,6274.85 5874.9,6167.65C5984.77,6055.87 5995.81,6042.16 6027.39,5977.92C6060.3,5910.99 6061.21,5906.66 6055.58,5847.62L6049.79,5786.53ZM4425.45,6065.13C4428.35,6065.31 4430.99,6067.21 4432.02,6070.09C4433.39,6073.95 4431.36,6078.21 4427.47,6079.56C4423.57,6080.86 4419.32,6078.89 4417.95,6075.06L4417.95,6075.01C4416.58,6071.15 4418.62,6066.89 4422.5,6065.54C4423.48,6065.21 4424.48,6065.06 4425.45,6065.13L4425.45,6065.13ZM5661.9,6341.29C5665.62,6340.84 5661.46,6350.74 5649.85,6373.2C5632.83,6406.06 5626.41,6411.24 5623.21,6394.82L5623.15,6394.82C5620.49,6381.11 5625.47,6372.11 5646.59,6352.77C5654.59,6345.52 5659.66,6341.56 5661.9,6341.29L5661.9,6341.29ZM5667.64,6431.14C5670.72,6431.24 5670.16,6436.98 5663.4,6448.26C5656.88,6459.19 5648.97,6466.93 5645.81,6465.43C5642.66,6463.91 5644.67,6456.01 5650.15,6447.95L5650.15,6447.84C5657.87,6436.57 5664.56,6431.03 5667.64,6431.13L5667.64,6431.14ZM5575.72,6482.55C5582.6,6480.8 5580.53,6490.24 5569.88,6513.95C5558.14,6539.92 5548.41,6549.5 5544.64,6538.83C5540.56,6527.32 5553.49,6496.3 5565.84,6487.93C5570.15,6484.98 5573.43,6483.13 5575.72,6482.55ZM5622.59,6482.66C5624,6483.33 5624.69,6485.64 5624.6,6489.54C5624.27,6502.14 5613.09,6509.3 5609.55,6499.26L5609.55,6499.21C5608.36,6495.77 5611.31,6489.56 5616.12,6485.45C5619.03,6482.91 5621.17,6481.98 5622.59,6482.65L5622.59,6482.66ZM5574.32,6567.18L5562.53,6578.24C5555.87,6584.14 5545.95,6591.09 5540.24,6593.35C5531.03,6597.04 5530.75,6596.27 5537.96,6586.94L5537.91,6586.83C5542.41,6581.09 5552.35,6574.17 5560.2,6571.73L5574.32,6567.18ZM5487.79,6590.66C5488.64,6590.65 5489.39,6590.77 5490.01,6591.07C5493.09,6592.53 5492.17,6602.11 5487.84,6612.38C5480.17,6630.8 5480.32,6630.89 5502.32,6617.97C5524.39,6605.02 5524.57,6605.1 5517.01,6623.76C5511.31,6637.91 5511.94,6642.58 5519.5,6642.44C5525.77,6642.41 5523.36,6650.27 5513.44,6663.07C5477.31,6709.55 5481.69,6719.64 5522.03,6683.09C5533.85,6672.2 5546.14,6664.68 5549.08,6666.07C5556.35,6669.54 5541.26,6687.97 5526.79,6693.23C5520.36,6695.56 5502.19,6710.97 5486.29,6727.27C5452.19,6762.73 5429.83,6773.21 5457.94,6740.51C5474.16,6721.64 5474.76,6719.41 5461.2,6727.32C5401.37,6762.24 5355.79,6806.37 5304.58,6878.98C5243.1,6966.1 5239.54,7001.52 5286.37,7059.34C5339.89,7125.41 5358.42,7163.09 5340.53,7169.41C5337.16,7170.6 5313.22,7166.65 5287.35,7160.62C5239.96,7149.55 5079.52,7127.54 5070.21,7130.83C5063.02,7133.38 4949.68,7129.4 4854.31,7123.28C4808.47,7120.34 4753.94,7122.22 4730.53,7127.52C4680.35,7138.87 4660.2,7131.79 4608.82,7084.74C4588.3,7065.95 4544.94,7030.59 4512.45,7006.17C4464.45,6970.08 4342.61,6852.02 4345.74,6844.63C4346.3,6843.63 4360.79,6842.59 4378.18,6842.46C4395.56,6842.35 4445.01,6831.94 4488.09,6819.44C4531.17,6806.92 4587.99,6792.41 4614.35,6787.16C4662.76,6777.53 4778.44,6747.67 4903.65,6712.53C4972.05,6693.32 5013.76,6686.46 5054.69,6687.8C5081.85,6688.7 5089.79,6707.48 5092.3,6777.08C5093.28,6804.25 5095.95,6832.02 5098.3,6838.79C5106.62,6862.93 5139.83,6839 5201.23,6764.61C5234.29,6724.55 5263.32,6692.73 5265.68,6693.85C5272.18,6696.97 5197.99,6794.59 5143.35,6854.93C5116.81,6884.23 5059.3,6935.64 5015.54,6969.14C4971.76,7002.62 4937.42,7030.7 4939.19,7031.57C4944.69,7034.2 5090.24,6966.02 5123.95,6945.03C5141.74,6933.96 5174.73,6908.18 5197.25,6887.72C5219.85,6867.36 5238.9,6850.3 5239.77,6850.01C5240.57,6849.71 5243.12,6859.02 5245.51,6870.7C5247.88,6882.36 5253.4,6892.73 5257.97,6893.72C5274.72,6897.34 5440.46,6662.1 5439.22,6636.44C5438.62,6624.16 5475.03,6590.85 5487.79,6590.66L5487.79,6590.66ZM5608.31,6599.97C5612.44,6601.4 5611.47,6609.71 5603.24,6624.07C5592.55,6642.72 5587.58,6646.1 5577.43,6641.76C5567.05,6637.33 5567.99,6633.02 5582.86,6616.99C5594.95,6603.96 5604.17,6598.54 5608.31,6599.97ZM3509.55,6609.12C3505.74,6610.35 3504.4,6616.27 3506.45,6622.06C3508.49,6627.84 3511.31,6632.15 3512.91,6631.57C3514.49,6631.07 3515.82,6625.19 3516.01,6618.64C3516.18,6612.06 3513.26,6607.81 3509.55,6609.12ZM5497.36,6652.52C5490.97,6651.4 5456.69,6690.48 5456.24,6700.47C5455.52,6716.79 5471.87,6706.17 5486.34,6681.02C5493.73,6668.14 5499.07,6655.66 5498.24,6653.3C5498.08,6652.85 5497.78,6652.6 5497.36,6652.52ZM3810.9,7220.88C3811.69,7220.64 3813.06,7224.18 3815.82,7231.23C3818.81,7239.07 3825.25,7247.42 3829.94,7249.9C3842.45,7256.48 3919.04,7372.26 3958.79,7444.64C4017.58,7551.74 4081.6,7692.44 4117.32,7793.07C4146.41,7875.04 4149.86,7890.11 4140.81,7893.31C4134.91,7895.39 4127.47,7893.59 4124.26,7889.28C4121.02,7885.01 4099.65,7834.81 4076.72,7777.81C3996.96,7579.45 3869.39,7320.18 3826.99,7270.28C3816.2,7257.58 3809.16,7242.57 3809.56,7232.98C3809.89,7225.07 3810.11,7221.11 3810.9,7220.88ZM3823.26,7362.35C3819.59,7361.45 3821.29,7370.78 3826.99,7382.83C3832.76,7394.85 3848.62,7430.96 3862.47,7462.95C3876.31,7494.96 3910.1,7570.01 3937.53,7629.77C3964.95,7689.53 3996.12,7762.84 4006.79,7792.7C4017.43,7822.58 4028.95,7846.06 4032.39,7844.84C4035.81,7843.61 4033.91,7832.75 4028.2,7820.69L4028.2,7820.64C4022.41,7808.54 3997.1,7745.59 3971.82,7680.77C3907.81,7516.55 3837.28,7365.39 3823.26,7362.35L3823.26,7362.35ZM2419.44,7855.09C2424.1,7854.65 2429.08,7855.66 2431.9,7857.93C2435.64,7860.94 2432.22,7865.67 2424.3,7868.48C2416.34,7871.28 2408.76,7870.44 2407.38,7866.57L2407.33,7866.57C2405.97,7862.71 2409.42,7857.99 2414.99,7856.02C2416.39,7855.54 2417.88,7855.23 2419.43,7855.09L2419.44,7855.09ZM4044.08,7862.79C4043.43,7862.69 4043.16,7863.98 4043.41,7866.78C4044.08,7874.22 4047.39,7883.65 4051.01,7887.72C4054.62,7891.8 4054.12,7885.77 4049.87,7874.17L4049.93,7874.12C4047.29,7866.92 4045.17,7862.96 4044.08,7862.79L4044.08,7862.79ZM4156.79,7928.12C4163.13,7928.1 4166.87,7932.81 4170.96,7944.41C4184.05,7981.45 4161.65,7991.69 4145.05,7956.26C4136.77,7938.37 4137.41,7933.95 4149.5,7929.67C4152.3,7928.68 4154.68,7928.13 4156.79,7928.12L4156.79,7928.12ZM4457.99,8017.14C4462.2,8016.13 4466.46,8024.14 4466.06,8035.66C4465.55,8050.05 4465.15,8050.23 4458.35,8038.81C4454.52,8032.26 4452.46,8024.49 4453.95,8021.38L4453.95,8021.33C4455.17,8018.81 4456.59,8017.48 4457.99,8017.14L4457.99,8017.14ZM3834.44,8207.49C3834.1,8207.41 3833.68,8207.44 3833.14,8207.6C3823.86,8210.45 3747.16,8323.21 3735.49,8351.29C3721.96,8383.78 3732.26,8371.55 3774.54,8304.84C3796.68,8269.88 3820.73,8233.18 3827.92,8223.27C3834.21,8214.6 3836.77,8208.11 3834.44,8207.49L3834.44,8207.49Z" style="fill-rule:nonzero;"/>
            </g>
        </g>
    </g>
</svg>
